{"glyphs":{"0":{"ha":938,"x_min":-24,"x_max":835,"o":"m 511 54 l 483 51 l 454 51 q 163 165 300 51 q 3 431 26 278 q -14 558 -12 531 l -15 589 q 67 961 -24 760 q 268 1144 149 1144 l 375 1125 l 563 1093 q 732 950 651 1078 q 818 736 800 842 q 835 571 835 642 q 767 243 835 381 q 511 54 681 71 m 207 469 q 290 300 214 415 q 426 196 358 197 q 578 353 524 193 q 628 653 628 499 l 628 701 q 621 746 625 718 q 533 885 618 769 q 389 992 458 988 q 247 839 292 983 q 203 547 204 701 q 207 469 203 503 z "},"1":{"ha":897,"x_min":38,"x_max":864,"o":"m 864 97 q 836 38 864 63 q 772 14 808 14 l 407 14 q 368 22 411 14 q 254 40 318 33 q 54 49 164 49 q 43 88 50 68 q 38 108 38 101 q 101 171 38 171 q 180 161 122 171 q 267 151 238 151 q 392 315 392 151 q 363 664 392 443 q 326 915 344 789 q 314 919 322 919 q 226 857 303 919 q 118 794 149 794 q 63 819 88 794 q 38 869 38 843 q 86 939 38 881 q 211 1056 147 1010 q 376 1117 299 1117 q 453 1046 415 1117 q 499 828 499 960 l 499 463 q 506 318 500 379 q 549 164 519 174 q 617 156 572 156 q 682 158 638 156 q 749 161 726 161 q 864 97 864 161 z "},"2":{"ha":761,"x_min":-21,"x_max":721,"o":"m 364 611 q 438 743 400 678 q 486 878 485 832 q 481 917 486 897 q 440 961 475 938 l 400 988 q 257 897 340 988 l 74 699 q 17 731 49 699 q -21 790 -15 764 q 82 931 -21 821 q 214 1061 163 1018 q 374 1140 308 1140 q 464 1115 425 1140 l 544 1064 q 611 985 586 1038 q 638 881 636 932 q 461 414 640 744 l 367 239 q 390 225 367 226 l 419 229 l 456 235 l 539 235 l 596 238 q 688 194 651 240 q 721 96 719 153 q 663 64 721 85 q 507 39 604 49 q 415 35 476 39 q 322 31 353 31 q 253 22 301 31 q 178 13 204 13 q 139 44 149 13 q 129 132 129 93 l 129 153 l 131 175 q 364 611 236 368 z "},"3":{"ha":642,"x_min":-43,"x_max":588,"o":"m 28 136 q 38 155 28 150 q 74 164 49 160 l 163 157 q 335 244 225 153 q 439 381 439 332 q 372 465 439 419 q 264 510 306 510 l 156 469 q 121 461 138 465 q 94 458 113 461 q 81 461 83 458 l 51 474 q 36 538 38 486 q 42 570 36 564 q 152 640 47 576 q 283 729 257 704 q 372 935 371 811 q 345 965 372 947 q 293 986 318 983 q 160 971 217 986 l 29 936 q -36 1000 -7 936 q -43 1033 -40 1010 q -18 1074 -43 1060 q 124 1113 32 1093 q 268 1132 217 1132 q 288 1133 282 1132 q 421 1088 378 1133 l 493 1011 q 526 940 522 981 q 463 736 526 826 l 378 636 l 378 624 q 507 545 429 614 q 586 396 585 476 q 449 126 588 246 q 164 11 315 11 q 72 56 115 11 q 28 136 29 100 z "},"4":{"ha":726,"x_min":33,"x_max":694,"o":"m 149 336 q 72 364 110 336 q 33 468 35 392 q 111 649 33 479 q 264 965 196 833 q 364 1111 339 1111 q 456 1086 396 1111 q 528 1035 522 1060 q 542 861 539 982 q 544 701 542 818 q 549 556 549 592 q 564 540 549 549 l 628 532 q 672 479 649 532 q 693 407 692 433 q 660 389 694 392 l 576 397 q 560 389 560 397 l 565 263 l 571 104 l 579 28 q 575 7 579 11 q 563 0 571 3 q 444 56 475 0 q 413 196 428 86 q 393 365 394 326 q 365 388 392 386 l 149 336 m 258 499 l 336 507 q 378 517 371 507 q 389 546 382 522 l 390 565 l 392 603 l 390 625 l 390 810 q 393 858 390 842 q 383 874 393 869 q 276 806 318 874 q 221 651 244 754 q 189 490 206 571 l 214 490 l 258 499 z "},"5":{"ha":671,"x_min":29,"x_max":649,"o":"m 344 1111 q 444 1106 408 1111 l 506 1101 q 600 1111 529 1100 l 628 1092 q 647 1022 646 1079 q 628 939 649 951 l 600 928 q 486 935 565 928 l 392 943 q 263 889 299 943 q 233 744 235 844 q 338 600 232 642 l 532 546 q 638 378 636 501 q 568 136 639 213 q 394 39 497 60 l 242 8 q 146 0 197 0 q 31 63 32 0 q 44 117 29 93 l 75 165 q 444 325 443 165 q 425 421 444 369 l 344 442 q 243 451 315 449 q 163 471 194 453 l 85 514 q 56 585 64 550 q 47 651 47 621 l 49 736 q 49 774 49 736 q 51 818 49 800 l 51 907 q 128 1089 51 1051 q 344 1111 172 1110 z "},"6":{"ha":874,"x_min":40,"x_max":833,"o":"m 476 0 q 239 90 344 -1 q 90 301 147 168 q 40 476 40 418 q 157 900 40 689 q 476 1111 278 1118 l 517 1110 l 557 1110 l 582 1111 l 596 1111 l 657 1071 q 721 963 721 1029 q 692 919 721 931 q 653 913 678 918 l 635 913 q 367 874 429 913 q 278 635 281 821 q 343 614 282 614 q 467 626 400 614 l 579 649 q 803 519 750 649 q 833 238 833 444 q 728 82 833 163 q 476 0 622 1 m 443 221 q 596 276 497 219 q 657 392 657 328 q 596 475 657 457 l 569 468 l 529 467 l 464 468 l 394 474 q 319 433 371 475 q 265 333 267 392 q 279 276 265 306 q 314 257 283 274 q 357 239 328 251 q 443 221 392 222 z "},"7":{"ha":886,"x_min":40,"x_max":849,"o":"m 825 1064 q 847 989 846 1050 q 750 550 849 872 q 690 370 728 479 q 578 63 653 261 q 542 24 568 39 l 488 7 l 440 0 q 397 13 413 0 q 386 46 390 21 l 386 57 l 406 110 l 485 318 l 608 669 q 672 908 669 844 q 665 928 672 917 q 535 957 656 957 q 101 850 294 957 q 46 904 56 875 l 40 936 q 43 969 40 961 l 57 1010 q 297 1082 69 1047 q 574 1111 483 1110 q 825 1064 749 1113 z "},"8":{"ha":813,"x_min":38,"x_max":772,"o":"m 697 958 q 753 814 743 871 l 768 726 q 753 685 768 700 l 729 653 q 719 622 724 644 q 740 508 719 600 l 767 393 l 772 338 q 629 85 772 179 q 338 0 504 1 q 146 158 232 -1 q 68 414 69 297 q 90 486 68 468 q 61 660 81 563 q 50 715 57 678 q 38 771 47 733 q 165 1015 38 913 q 429 1111 283 1110 q 585 1070 510 1113 q 697 958 661 1028 m 171 742 q 200 657 188 682 q 267 608 226 610 l 303 607 l 332 607 q 426 650 346 607 q 525 704 476 678 l 538 761 q 544 832 543 788 q 531 906 546 869 q 457 943 517 943 q 276 867 382 943 q 171 742 171 792 m 276 399 l 271 354 l 271 321 q 282 278 271 301 q 292 246 286 260 q 306 217 292 240 q 421 204 371 204 q 601 351 600 204 q 589 419 601 386 l 564 483 q 468 504 526 504 q 276 399 321 504 z "},"9":{"ha":874,"x_min":39,"x_max":835,"o":"m 397 1111 q 696 951 554 1113 q 833 635 832 796 q 716 211 835 422 q 397 0 597 0 l 356 0 l 315 1 l 278 0 l 215 39 q 168 93 189 56 q 153 149 156 122 q 181 192 153 182 q 203 195 190 193 q 218 197 215 197 q 238 199 229 197 q 413 214 371 208 q 521 244 488 224 q 596 476 596 290 q 531 497 592 497 q 406 483 481 497 l 293 463 q 72 593 124 463 q 40 874 42 667 q 174 1046 39 972 q 397 1111 290 1110 m 408 911 q 256 856 351 911 q 204 747 204 813 q 276 636 204 668 l 303 643 l 344 644 q 375 644 344 644 q 411 642 396 644 l 478 638 q 561 684 515 635 q 608 779 607 733 q 594 835 608 806 q 408 911 461 911 z "}," ":{"ha":347,"x_min":0,"x_max":0,"o":""},"!":{"ha":350,"x_min":43,"x_max":328,"o":"m 328 1042 q 303 864 328 1026 q 239 549 272 665 q 147 381 192 382 q 90 421 108 379 q 75 507 76 450 l 128 931 l 128 1126 q 153 1218 128 1163 q 210 1282 181 1282 q 328 1042 324 1285 m 239 49 q 150 -90 240 -87 q 81 -50 110 -92 q 44 53 46 0 q 68 144 43 100 q 140 197 96 197 q 224 150 200 197 q 239 49 238 118 z "},"\"":{"ha":569,"x_min":156,"x_max":510,"o":"m 508 1044 q 499 917 510 994 q 451 796 482 796 q 407 915 407 796 l 407 940 q 406 986 407 972 q 457 1133 406 1132 q 501 1107 490 1135 q 508 1044 507 1093 m 271 1047 q 261 897 267 944 q 204 746 244 747 q 168 811 181 744 q 157 1026 158 860 q 222 1140 156 1138 q 271 1047 267 1142 z "},"#":{"ha":1361,"x_min":22,"x_max":1286,"o":"m 1286 214 q 1129 232 1235 214 q 1043 240 1081 240 q 953 216 981 240 q 926 132 926 192 q 931 67 926 111 l 936 6 q 919 -72 936 -44 q 882 -108 907 -93 q 839 22 849 -72 q 826 169 833 96 q 767 240 814 240 q 685 225 707 240 q 656 151 656 207 q 661 40 656 74 q 653 -29 661 -11 q 603 -54 640 -54 q 547 18 554 -54 q 539 158 544 65 q 517 215 536 201 q 488 224 506 222 q 461 222 476 224 q 397 215 433 219 l 226 215 q 151 207 174 207 q 22 253 78 207 q 104 324 40 292 q 210 351 163 351 l 429 351 q 511 370 492 351 q 531 451 531 389 l 531 497 q 507 603 531 581 q 475 614 494 614 q 426 606 460 614 q 315 586 354 588 q 222 611 260 583 q 196 656 197 629 q 374 713 194 690 q 514 760 474 725 q 539 903 536 779 q 608 1088 542 1028 q 649 1049 636 1068 q 661 1010 661 1031 q 656 955 661 992 q 651 900 651 918 l 651 861 q 658 801 651 821 q 689 782 665 782 q 788 796 763 782 q 824 882 822 817 q 832 1013 825 972 q 888 1097 847 1096 q 931 972 929 1099 q 971 807 932 844 q 1047 794 979 800 q 1267 789 1089 792 q 1271 769 1267 779 q 1278 738 1275 758 q 1032 660 1278 660 q 951 634 975 660 q 928 531 928 608 q 1065 361 926 364 q 1286 292 1203 358 l 1286 214 m 822 607 q 820 644 822 638 q 803 651 818 651 q 636 483 636 651 q 654 407 636 428 q 725 385 672 386 q 808 421 786 383 q 824 515 824 449 q 822 553 824 539 l 822 607 z "},"$":{"ha":844,"x_min":40,"x_max":767,"o":"m 767 300 q 536 85 767 85 q 540 -12 536 -8 q 453 -139 540 -137 q 383 -50 383 -140 l 383 -12 q 374 57 383 32 q 315 107 360 92 q 161 165 189 151 q 42 290 43 224 q 57 351 40 333 q 115 371 74 369 q 207 325 124 371 q 306 271 304 272 l 329 271 q 333 306 333 288 l 333 346 q 219 483 333 397 q 103 686 104 568 q 151 849 101 768 q 269 971 197 925 q 338 1069 321 1003 q 354 1172 346 1121 q 403 1221 364 1219 q 449 1172 439 1222 q 454 1106 453 1147 q 453 1075 454 1090 l 453 1049 q 457 1015 453 1024 q 493 993 461 1006 q 657 911 590 954 l 657 810 l 579 810 l 483 864 q 463 856 475 860 l 463 614 q 672 506 607 563 q 767 300 767 426 m 319 604 q 310 679 311 650 q 311 711 310 690 q 314 742 311 721 q 304 797 314 764 q 244 693 244 707 q 315 597 244 640 l 319 604 m 606 293 q 501 418 606 351 l 504 325 q 500 260 506 301 l 586 260 q 600 266 594 263 q 606 293 606 269 z "},"%":{"ha":1160,"x_min":81,"x_max":964,"o":"m 433 919 q 354 774 433 814 q 188 744 297 744 q 111 782 142 744 q 81 874 81 819 q 128 997 81 939 q 325 1081 194 1081 q 413 1022 385 1081 q 433 919 433 979 m 846 1071 q 740 775 846 971 q 560 463 650 619 q 483 344 551 446 q 400 182 435 269 q 347 -21 383 138 q 288 -107 326 -107 q 238 -67 263 -107 q 213 1 213 -26 q 274 299 213 153 q 447 608 319 410 q 608 883 546 763 q 725 1118 667 1001 q 771 1165 750 1165 q 846 1071 846 1165 m 964 244 q 875 89 964 158 q 729 28 796 28 q 650 79 679 28 q 625 183 625 122 q 669 358 625 307 q 803 406 710 406 q 964 244 964 406 m 317 921 q 303 944 317 929 q 283 958 289 958 q 238 935 265 958 q 211 906 211 911 q 217 891 211 906 q 226 865 224 876 l 272 865 q 302 895 288 881 q 317 921 317 910 m 842 249 q 824 275 842 261 q 794 289 806 289 q 753 258 774 289 q 733 206 733 226 q 779 174 733 197 q 821 214 779 175 q 842 249 842 235 z "},"&":{"ha":990,"x_min":53,"x_max":1006,"o":"m 1004 417 q 927 313 1006 381 q 847 228 849 244 q 870 197 847 218 q 894 146 893 175 q 869 72 896 101 q 799 42 843 43 q 744 63 774 40 q 681 108 683 108 q 307 -57 458 -56 q 121 36 192 -58 q 54 239 56 121 q 164 468 53 336 q 276 588 189 497 q 199 765 231 669 q 160 953 161 876 q 261 1126 158 1057 q 461 1190 353 1189 q 704 1115 601 1192 q 818 894 817 1031 q 731 693 819 786 q 542 539 606 590 q 604 449 576 486 q 700 357 672 357 q 799 429 717 357 q 910 503 881 501 q 976 492 960 504 q 1004 417 1003 475 m 601 883 q 494 989 604 989 q 390 950 426 989 q 367 910 383 942 q 394 821 367 885 q 446 714 418 767 q 558 794 531 767 q 601 883 600 835 m 515 250 q 447 350 503 264 q 392 410 410 408 q 322 342 372 410 q 269 251 272 275 q 281 190 269 214 q 322 164 292 165 q 424 193 358 163 q 515 250 483 222 z "},"'":{"ha":233,"x_min":38,"x_max":207,"o":"m 196 844 q 126 756 181 750 q 61 899 93 758 q 38 1035 56 936 q 119 1125 53 1121 q 144 1122 131 1125 q 193 1050 175 1118 q 207 957 206 1001 q 196 844 207 915 z "},"(":{"ha":486,"x_min":46,"x_max":568,"o":"m 567 -126 q 528 -212 568 -174 q 442 -253 489 -251 q 319 -186 407 -254 q 46 356 49 21 q 53 447 46 390 q 242 1056 86 706 q 297 1168 276 1135 q 385 1247 343 1246 q 442 1217 417 1249 q 468 1154 467 1186 q 408 1008 468 1144 q 235 368 238 619 q 258 224 235 306 q 322 94 285 135 q 490 -53 415 -6 q 567 -126 565 -101 z "},")":{"ha":711,"x_min":-100,"x_max":646,"o":"m 646 424 q 563 154 646 307 q 358 -103 479 1 q 107 -217 226 -217 q 28 -136 28 -217 q 53 -87 28 -112 q 336 156 176 10 q 457 440 454 265 q 406 654 458 532 q 289 843 354 772 q 79 1029 176 965 q -54 1110 35 1056 q -100 1167 -100 1138 q -74 1236 -100 1201 q -11 1271 -47 1271 q 294 1097 115 1272 q 522 811 435 958 q 646 424 644 603 z "},"*":{"ha":910,"x_min":93,"x_max":813,"o":"m 811 763 q 717 717 813 718 q 621 686 622 715 q 633 658 621 679 q 644 628 644 636 q 614 570 644 604 q 560 536 583 536 q 478 591 532 536 q 414 647 425 646 q 332 615 399 647 q 253 585 274 588 q 228 594 236 585 q 222 622 225 601 q 281 785 222 647 q 188 857 281 817 q 93 921 94 897 q 110 947 93 928 q 163 969 133 968 q 231 956 189 971 q 336 921 319 924 q 394 972 351 921 q 453 1025 438 1024 q 493 983 475 1025 q 531 900 531 900 q 601 842 558 851 l 775 800 q 811 763 810 790 z "},"+":{"ha":956,"x_min":92,"x_max":878,"o":"m 878 539 q 758 460 878 494 q 603 418 681 439 q 565 338 571 403 q 558 225 563 281 q 521 169 554 169 q 483 233 488 169 q 476 350 481 292 q 419 414 467 414 l 200 414 q 132 440 172 414 q 92 492 92 465 q 136 549 92 529 q 214 564 169 564 l 419 564 q 454 740 450 606 q 500 850 457 850 q 542 742 542 850 l 542 686 q 588 574 543 574 q 679 592 603 574 q 782 611 756 611 q 847 591 817 611 q 878 539 878 571 z "},",":{"ha":378,"x_min":3,"x_max":333,"o":"m 332 157 q 238 -67 333 60 q 60 -193 142 -193 q 17 -172 33 -193 q 3 -139 6 -153 q 42 -79 3 -128 q 140 50 68 -47 q 210 178 142 53 q 265 222 233 221 q 332 157 331 224 z "},"-":{"ha":728,"x_min":61,"x_max":700,"o":"m 700 383 q 543 314 581 326 q 308 281 444 281 q 163 310 240 281 q 61 410 64 347 q 117 463 92 460 q 161 451 126 463 q 210 435 210 435 q 256 425 235 428 q 269 424 263 425 l 290 424 q 588 443 388 424 q 625 431 604 443 q 700 383 672 403 z "},".":{"ha":363,"x_min":89,"x_max":321,"o":"m 321 139 q 275 26 321 74 q 164 -24 229 -22 q 100 -7 114 -25 q 90 61 92 7 q 133 168 89 110 q 231 228 176 226 q 294 203 268 229 q 321 139 321 176 z "},"/":{"ha":750,"x_min":22,"x_max":736,"o":"m 735 947 q 624 746 736 899 q 513 604 569 672 q 418 424 503 521 q 238 140 292 278 q 199 -11 225 90 q 126 -57 186 -57 q 46 3 75 -57 q 22 107 24 47 q 53 194 22 117 q 268 618 146 429 l 464 922 q 532 1021 519 1006 q 631 1081 583 1081 q 703 1035 672 1081 q 735 947 733 990 z "},":":{"ha":333,"x_min":58,"x_max":303,"o":"m 279 656 q 254 580 281 608 q 181 550 228 551 q 96 585 133 549 q 58 668 58 621 q 92 740 58 711 q 168 771 125 769 q 255 747 232 772 q 279 656 278 721 m 301 114 q 276 35 301 57 q 192 11 250 13 q 125 51 156 10 q 96 126 97 89 q 215 233 93 233 q 303 135 299 233 q 301 114 303 118 z "},";":{"ha":342,"x_min":-71,"x_max":304,"o":"m 276 729 q 251 650 276 682 q 189 618 225 618 q 113 657 143 618 q 82 751 82 696 q 93 803 82 792 q 167 821 108 821 q 244 796 211 821 q 276 729 276 771 m 304 46 q 231 -178 304 -74 q 86 -276 160 -276 q -22 -240 26 -276 q -71 -149 -71 -204 q -26 -103 -71 -115 q 64 -78 18 -90 q 140 -14 119 -60 q 156 67 156 19 q 153 116 156 85 q 150 160 150 147 q 201 218 150 218 q 257 183 224 218 q 304 46 304 132 z "},"<":{"ha":778,"x_min":117,"x_max":642,"o":"m 642 872 q 550 749 642 825 q 378 624 510 715 q 286 543 286 560 q 455 382 286 506 q 624 239 624 258 q 544 169 624 169 q 310 310 472 169 q 201 399 256 354 q 117 517 117 474 q 169 642 117 583 q 311 757 207 683 q 492 897 376 803 q 572 942 547 942 q 626 911 606 942 q 642 872 642 888 z "},"=":{"ha":1022,"x_min":94,"x_max":936,"o":"m 883 760 q 794 679 883 679 q 736 686 768 679 q 704 693 704 693 q 506 656 572 656 q 475 661 508 656 q 383 669 438 667 q 197 675 306 675 q 94 756 94 675 q 311 857 94 857 q 469 836 414 857 l 744 864 q 853 835 822 860 q 883 760 883 810 m 936 399 q 790 288 936 315 q 389 267 679 267 q 253 272 276 267 q 192 350 192 288 q 326 444 192 433 q 522 447 425 446 q 660 460 611 460 q 704 456 686 460 q 729 454 722 453 q 782 471 756 463 q 888 486 839 486 q 915 463 897 486 q 936 399 936 433 z "},">":{"ha":756,"x_min":160,"x_max":653,"o":"m 653 563 q 464 332 653 489 q 233 210 317 210 q 193 226 213 210 q 174 271 174 242 q 207 317 174 294 q 415 472 307 383 q 486 529 450 501 q 499 553 499 542 q 428 635 499 568 q 251 807 308 747 q 160 954 160 903 q 176 1000 160 981 q 217 1019 193 1019 q 299 953 233 1019 q 451 792 304 947 q 608 642 482 760 q 653 563 653 601 z "},"?":{"ha":1061,"x_min":118,"x_max":938,"o":"m 936 949 q 851 769 938 853 q 694 629 799 724 q 608 485 610 553 q 635 419 608 478 q 649 357 647 390 q 631 283 650 301 q 556 264 613 265 q 474 318 525 264 q 411 467 411 383 q 514 688 411 578 q 739 925 589 767 q 656 990 739 976 q 535 997 625 996 q 297 947 374 999 q 218 922 260 922 q 152 951 185 922 q 118 1013 119 979 q 149 1061 138 1043 q 549 1204 267 1204 q 801 1150 697 1204 q 936 949 935 1082 m 642 40 q 594 -57 643 -10 q 514 -106 546 -104 q 447 -65 494 -107 q 393 24 393 -18 q 443 82 411 46 q 533 140 499 140 q 606 110 572 140 q 642 40 640 79 z "},"@":{"ha":1446,"x_min":82,"x_max":1357,"o":"m 1357 610 q 1254 278 1357 472 q 1043 35 1149 78 q 703 -3 950 -3 q 189 167 349 -3 q 82 424 82 278 q 299 990 82 797 q 796 1158 488 1158 q 1238 985 1092 1158 q 1357 610 1357 840 m 1221 651 q 1109 894 1221 775 q 889 1014 997 1014 q 435 908 601 1014 q 226 493 226 776 q 700 126 226 126 q 901 140 833 126 q 995 185 958 153 q 1068 253 1032 218 q 842 447 986 253 q 674 297 775 353 q 497 246 581 246 q 340 324 401 246 q 282 489 282 394 q 421 817 282 686 q 656 925 538 925 q 825 897 751 925 q 911 808 911 865 q 903 768 911 779 q 872 747 901 767 q 938 654 913 739 q 990 504 975 529 q 1121 425 1033 425 q 1201 536 1172 425 q 1221 651 1221 610 m 815 738 q 710 754 753 738 q 647 771 667 771 q 520 669 597 771 q 443 511 443 568 q 506 425 443 425 q 674 482 618 425 q 743 608 707 515 q 815 738 779 700 z "},"A":{"ha":975,"x_min":44,"x_max":931,"o":"m 515 1111 q 703 921 618 1113 q 824 585 797 708 l 931 89 l 921 53 q 901 18 914 29 q 875 3 889 7 l 851 0 q 818 3 828 0 l 790 11 l 790 75 l 792 136 q 767 276 794 232 q 653 321 739 321 q 351 295 411 322 q 258 179 290 268 q 139 18 225 90 l 111 10 l 81 7 q 49 21 58 7 q 44 54 44 33 q 53 136 44 96 q 74 215 64 189 q 190 617 107 303 q 328 1001 258 872 q 515 1111 386 1110 m 344 526 l 401 535 l 436 538 l 528 531 q 593 543 551 529 q 688 596 629 556 q 622 813 675 685 q 544 938 571 936 l 526 939 l 517 939 q 408 771 428 939 q 344 526 389 603 z "},"B":{"ha":975,"x_min":44,"x_max":932,"o":"m 486 1111 q 651 1039 556 1111 q 747 882 747 967 q 728 757 747 808 q 649 654 711 699 q 858 542 779 592 q 932 372 931 496 q 912 311 914 318 q 896 276 910 304 q 683 64 826 136 q 388 0 556 0 q 194 35 267 0 l 61 99 l 44 172 l 68 204 l 192 196 q 171 296 179 253 q 153 393 164 326 q 142 529 143 443 q 157 621 140 593 l 192 654 q 179 689 189 667 q 167 733 179 692 q 154 838 154 775 q 486 1111 154 1111 m 285 899 l 292 660 q 408 678 336 671 q 500 697 467 683 q 611 771 550 717 l 636 843 l 611 947 q 531 968 579 967 l 419 971 q 303 946 317 974 l 285 899 m 290 457 l 290 196 q 342 163 290 163 q 447 179 375 163 q 551 196 518 196 l 653 233 q 765 326 742 267 l 732 443 q 575 494 693 469 q 407 518 464 518 q 322 504 353 518 q 290 457 290 490 z "},"C":{"ha":986,"x_min":43,"x_max":942,"o":"m 543 1111 q 754 1043 624 1111 q 897 904 897 968 q 888 881 897 892 q 649 922 757 919 q 588 918 619 924 q 563 914 578 917 q 549 907 557 914 q 257 836 319 907 q 199 536 199 771 q 378 268 199 357 q 715 175 472 221 q 942 92 940 133 l 904 18 l 772 0 q 382 63 546 0 q 96 319 168 143 q 44 575 46 444 q 185 947 43 790 q 543 1111 331 1111 z "},"D":{"ha":1011,"x_min":60,"x_max":978,"o":"m 94 1111 q 442 1058 172 1094 q 803 975 704 1024 q 978 683 978 889 q 938 424 978 524 q 768 226 889 304 q 351 0 679 169 l 94 0 l 76 144 q 68 279 68 214 q 64 415 68 325 q 60 550 60 504 q 61 656 60 619 l 68 835 q 76 974 68 900 q 94 1111 82 1018 m 256 925 q 250 790 256 878 q 243 656 243 697 q 231 396 239 569 q 233 267 228 340 q 247 132 235 200 l 436 171 l 700 353 q 807 683 758 404 q 729 793 807 751 q 565 848 682 819 q 413 894 447 876 l 256 925 z "},"E":{"ha":1118,"x_min":51,"x_max":1090,"o":"m 704 1125 q 868 1042 865 1126 l 833 967 q 568 903 711 919 q 465 840 493 894 q 447 718 444 799 q 454 579 454 497 q 826 661 746 660 q 897 610 897 663 q 875 528 897 585 q 619 458 747 493 q 429 344 431 404 q 457 213 428 264 q 567 150 492 150 q 758 172 632 150 q 946 194 883 193 q 1081 117 1076 197 l 1086 107 q 1090 90 1090 103 q 1079 68 1090 79 q 1014 43 1064 53 l 814 6 q 635 -14 781 0 l 594 -14 q 436 -8 597 -14 q 343 10 365 -6 q 325 26 333 17 q 310 44 317 36 l 288 81 l 286 296 q 260 401 286 400 l 225 390 q 174 381 204 383 q 51 425 111 381 l 51 528 q 80 557 79 535 q 263 581 81 579 q 254 739 263 607 l 246 871 q 335 1065 238 999 q 554 1119 396 1108 q 704 1125 615 1124 z "},"F":{"ha":892,"x_min":40,"x_max":851,"o":"m 551 1110 l 644 1111 l 746 1115 q 829 1090 807 1118 q 851 967 851 1063 q 621 936 847 949 q 331 910 369 921 q 200 743 201 872 q 233 624 199 656 q 331 596 267 592 l 426 601 l 507 608 q 582 601 551 613 q 646 579 614 599 q 678 506 676 565 q 664 435 679 468 l 414 413 l 224 431 l 238 296 l 224 18 q 201 -8 215 0 q 161 -15 188 -15 l 124 -11 q 86 6 103 -11 l 65 36 q 63 142 65 92 q 53 353 58 235 l 40 558 l 44 701 q 71 915 49 853 q 221 1058 108 1018 q 551 1110 356 1107 z "},"G":{"ha":1047,"x_min":46,"x_max":1000,"o":"m 619 1111 l 700 1104 l 746 1047 q 517 915 714 1031 q 175 413 178 715 q 258 211 174 296 q 460 126 343 126 q 904 508 678 126 q 497 560 718 560 l 465 560 q 419 561 428 560 q 365 603 368 563 q 731 676 374 674 q 933 665 858 678 q 1000 540 1000 654 q 878 297 1000 449 q 678 100 778 176 q 429 0 546 0 q 167 156 292 0 q 47 444 49 303 q 233 856 46 661 q 619 1111 393 1022 z "},"H":{"ha":1119,"x_min":51,"x_max":1040,"o":"m 1029 1090 l 1029 767 l 1038 314 q 1026 151 1040 192 q 965 96 1015 118 q 910 149 935 96 q 886 285 888 196 q 906 421 885 356 q 704 411 778 421 q 553 392 654 406 q 381 414 493 392 l 385 315 q 381 229 386 285 q 374 161 379 204 l 364 6 l 260 0 l 247 210 l 260 414 q 169 406 206 414 l 126 386 l 103 403 l 51 444 q 151 556 90 528 l 239 578 q 257 686 256 631 l 263 867 l 263 1010 q 331 1068 263 1065 q 371 1060 354 1069 q 396 1025 388 1050 l 382 986 l 378 950 q 385 899 378 921 l 392 857 l 388 836 l 372 586 l 524 586 q 617 593 596 586 l 778 610 q 822 603 800 610 l 901 578 q 917 778 901 653 l 933 914 l 933 957 q 926 992 932 969 q 922 1025 926 1007 q 906 1074 918 1043 l 901 1090 l 968 1111 l 1029 1090 z "},"I":{"ha":611,"x_min":28,"x_max":585,"o":"m 413 1111 l 558 1111 q 575 1068 575 1085 q 479 1014 575 1053 q 385 874 379 974 l 388 829 l 394 651 q 397 546 394 615 q 406 400 404 447 q 419 274 406 347 q 438 190 424 251 q 539 167 485 190 q 583 115 582 149 q 550 46 585 99 q 533 19 539 28 q 506 0 522 4 l 450 24 q 394 33 424 31 l 254 25 q 108 97 153 19 q 157 167 108 156 q 269 176 201 176 l 311 176 q 306 357 311 236 q 301 538 301 478 q 279 761 301 575 l 268 854 q 294 961 268 903 l 199 960 l 81 960 q 28 978 28 960 q 31 991 31 986 q 42 1007 32 996 l 65 1047 q 256 1097 131 1094 q 335 1100 315 1099 q 413 1111 386 1103 z "},"J":{"ha":671,"x_min":31,"x_max":642,"o":"m 469 1111 l 624 1111 q 642 1067 640 1088 q 542 1011 642 1050 q 442 865 436 971 l 444 817 l 451 643 l 464 375 q 496 144 469 257 q 418 35 469 69 q 293 0 367 0 q 146 33 219 0 q 31 129 63 71 q 64 182 31 181 q 176 128 83 183 q 303 75 263 76 q 364 129 342 74 q 349 547 364 307 q 339 700 347 596 q 319 843 332 756 l 319 871 q 346 954 325 896 l 242 953 l 154 953 q 67 971 67 953 q 82 1006 67 981 l 106 1044 q 304 1096 171 1094 q 388 1099 364 1097 q 469 1111 446 1101 z "},"K":{"ha":807,"x_min":36,"x_max":771,"o":"m 265 1107 q 313 989 313 1090 q 293 794 313 951 l 274 638 q 299 571 274 579 q 410 674 325 567 l 582 893 q 688 992 664 999 l 747 960 q 769 918 769 949 q 638 713 771 828 q 447 529 546 633 q 546 376 471 506 l 646 204 q 713 126 671 163 l 722 101 l 728 69 q 692 10 728 25 l 668 6 q 631 13 640 6 q 501 178 589 33 q 376 354 440 279 q 239 443 321 421 q 192 227 210 385 q 138 33 174 69 l 83 0 l 36 33 q 93 546 63 224 q 107 726 100 636 q 149 979 122 886 q 243 1111 186 1110 l 265 1107 z "},"L":{"ha":838,"x_min":38,"x_max":801,"o":"m 206 1090 l 246 1104 q 265 1107 256 1104 q 292 1111 282 1110 l 315 1107 q 351 1040 349 1101 q 349 997 353 1019 q 324 915 349 993 q 304 872 318 896 l 275 761 l 226 533 q 206 343 206 436 q 283 221 206 258 q 482 185 357 186 q 713 207 582 183 q 767 218 738 211 l 788 199 q 801 160 796 190 q 793 132 801 149 l 774 104 q 238 0 549 0 l 200 0 q 84 11 118 0 q 38 65 50 22 l 50 467 q 74 632 51 507 q 133 911 106 808 q 206 1090 171 1047 z "},"M":{"ha":1621,"x_min":25,"x_max":1697,"o":"m 510 1090 q 631 965 576 1090 l 732 654 q 868 376 785 492 q 1083 601 1003 472 q 1218 883 1136 685 q 1333 1053 1288 1051 q 1403 1017 1361 1054 q 1521 750 1488 892 q 1565 458 1535 689 q 1646 82 1596 226 l 1679 11 q 1697 -65 1697 -28 q 1621 -132 1697 -132 l 1576 -128 l 1540 -117 q 1453 97 1486 -49 q 1408 371 1432 185 q 1369 618 1386 551 q 1150 467 1228 576 l 1017 279 q 810 188 936 188 q 696 232 717 188 q 626 468 682 263 q 489 807 575 658 q 282 550 351 717 q 201 224 235 435 q 139 43 174 44 q 38 125 108 42 q 25 169 25 132 q 99 504 25 283 q 285 911 178 740 q 510 1090 397 1090 z "},"N":{"ha":1171,"x_min":53,"x_max":1117,"o":"m 1117 1006 l 1097 690 q 1076 543 1079 575 q 1068 408 1068 465 q 1026 124 1068 261 q 931 39 1001 40 q 801 89 882 38 l 331 692 q 314 701 325 697 q 275 586 288 701 q 268 447 268 517 q 315 89 268 199 l 306 60 q 292 29 300 42 q 233 0 278 0 q 163 32 199 0 l 129 69 l 67 367 q 53 499 53 433 q 123 796 53 668 q 292 925 193 924 q 507 750 357 926 q 688 518 533 718 q 857 328 832 329 q 868 347 864 328 q 867 476 868 371 l 865 586 l 860 810 q 888 1035 856 953 l 935 1085 q 993 1111 958 1110 q 1064 1076 1032 1113 q 1117 1006 1081 1053 z "},"O":{"ha":960,"x_min":46,"x_max":974,"o":"m 528 1111 q 831 922 692 1113 q 972 482 971 731 q 733 129 974 276 q 306 0 524 1 q 97 163 167 -1 q 46 444 46 283 q 160 885 46 693 q 528 1111 294 1110 m 306 444 q 301 433 303 436 q 282 401 300 431 q 264 346 264 371 q 306 260 264 306 l 364 229 q 443 214 389 217 l 510 219 q 654 336 560 224 q 750 593 749 449 q 692 793 751 701 q 519 897 624 897 l 492 894 q 353 757 400 894 q 306 444 308 628 z "},"P":{"ha":743,"x_min":22,"x_max":710,"o":"m 371 1111 q 604 989 496 1113 q 708 743 707 871 q 600 521 710 604 q 357 443 500 444 q 219 475 271 442 l 247 285 q 260 121 263 182 l 258 88 q 256 56 258 76 q 201 0 251 3 l 174 3 q 140 26 157 4 l 107 69 l 57 310 q 33 467 35 417 l 26 743 q 139 1006 22 897 q 371 1111 250 1110 m 197 729 q 214 603 204 635 q 325 579 221 581 q 497 624 429 578 q 586 774 575 675 q 504 889 544 858 q 371 926 457 926 q 235 887 282 928 q 194 768 189 846 l 197 729 z "},"Q":{"ha":1183,"x_min":46,"x_max":1124,"o":"m 599 1090 q 938 971 765 1090 q 1124 682 1124 842 q 1018 369 1124 503 q 768 147 892 208 l 643 85 l 636 68 l 633 39 q 704 -144 633 -42 l 710 -161 l 714 -182 q 617 -243 714 -240 q 572 -206 589 -243 q 563 -174 565 -185 q 553 -128 561 -162 q 353 86 472 28 l 133 194 q 46 468 46 268 q 200 894 46 708 q 599 1090 363 1090 m 194 496 q 256 299 193 379 q 419 165 304 236 l 444 210 q 496 335 472 335 q 594 204 533 335 q 856 382 760 264 q 958 676 957 507 q 849 864 960 790 q 632 931 751 929 q 325 803 454 932 q 194 496 196 674 z "},"R":{"ha":715,"x_min":50,"x_max":715,"o":"m 443 1111 q 604 1017 525 1111 q 685 839 683 924 q 568 611 686 701 l 353 447 l 676 215 q 715 114 701 193 q 625 50 674 51 q 519 104 578 49 l 364 250 q 188 392 268 339 l 201 38 l 113 0 l 50 85 l 50 658 q 153 972 50 843 q 443 1111 263 1111 m 179 701 l 188 569 q 393 642 296 569 q 533 810 479 706 q 497 896 525 850 q 431 953 464 953 q 268 876 358 953 q 179 701 174 796 z "},"S":{"ha":813,"x_min":38,"x_max":776,"o":"m 497 1111 q 638 1093 575 1113 q 729 1004 729 1065 q 706 938 729 974 q 673 941 692 939 q 650 943 654 943 q 628 943 644 943 q 592 944 607 944 q 401 911 486 946 q 324 799 325 879 q 481 674 324 764 q 690 547 674 563 q 775 313 774 475 q 632 79 776 171 q 358 0 507 0 q 142 47 247 0 q 38 179 38 94 l 38 246 q 60 283 38 283 q 488 188 251 188 q 557 249 540 199 q 567 347 567 279 q 450 507 567 451 l 233 610 q 115 799 117 681 q 258 1006 114 894 q 497 1111 396 1110 z "},"T":{"ha":825,"x_min":39,"x_max":804,"o":"m 419 1111 q 476 1033 461 1104 q 499 951 493 956 l 543 940 l 615 935 l 701 939 l 769 949 l 792 919 q 804 869 804 903 q 793 833 804 849 l 775 808 l 704 808 q 660 814 688 810 l 546 829 q 517 824 528 829 q 497 786 506 819 q 489 485 489 753 l 490 28 l 404 0 l 333 26 l 319 201 l 315 375 q 322 615 314 425 l 329 778 q 325 826 331 803 q 264 863 301 863 l 217 856 l 161 850 q 63 881 108 850 l 46 904 q 39 931 44 908 q 51 964 39 953 l 74 983 q 195 974 114 983 q 317 965 276 965 q 326 975 325 965 l 324 994 l 322 1014 l 326 1040 q 342 1068 331 1056 q 375 1085 347 1078 q 419 1111 403 1093 z "},"U":{"ha":1035,"x_min":46,"x_max":988,"o":"m 950 1058 l 988 844 l 976 492 q 839 151 949 283 q 517 0 714 0 q 185 169 288 0 q 76 553 119 278 l 47 1043 q 78 1092 46 1075 q 104 1101 99 1099 q 143 1111 104 1101 l 196 1099 q 239 1068 221 1090 l 232 919 l 226 725 q 246 438 222 579 q 323 232 267 311 q 488 151 379 153 q 632 199 576 150 q 726 326 667 229 q 818 711 818 476 q 796 944 818 833 q 774 1036 786 993 l 792 1071 q 835 1088 803 1085 l 881 1092 q 928 1081 917 1092 l 950 1058 z "},"V":{"ha":947,"x_min":42,"x_max":904,"o":"m 843 1111 l 871 1093 q 894 1071 883 1086 q 904 1042 900 1063 q 847 926 904 989 q 694 508 767 768 q 572 132 619 235 q 460 35 544 71 q 360 0 396 7 q 281 82 306 0 q 211 411 257 192 q 115 782 157 696 l 67 882 q 43 968 44 929 q 68 1036 42 1024 q 119 1046 94 1043 q 153 1054 139 1054 q 263 896 214 1054 q 313 689 288 792 q 429 336 390 375 q 447 328 436 332 q 561 583 471 328 q 678 919 619 751 q 843 1111 738 1064 z "},"W":{"ha":1558,"x_min":71,"x_max":1488,"o":"m 1144 8 q 1106 -1 1132 1 q 1056 7 1081 -1 l 1015 28 q 915 226 935 110 l 876 456 q 756 644 858 563 q 651 472 731 651 q 485 108 517 171 q 382 26 443 28 q 343 42 364 26 q 304 93 322 58 q 207 440 258 214 q 115 779 154 674 l 78 882 q 71 919 76 897 l 71 939 q 90 1003 71 971 q 111 1025 94 1008 l 160 1063 l 183 1067 q 285 882 258 1067 q 301 710 286 868 q 324 507 317 547 q 406 354 351 356 q 439 364 421 354 q 542 572 474 419 q 657 781 603 708 q 778 889 724 871 l 844 911 q 932 808 894 911 q 1026 492 958 738 q 1106 257 1086 281 q 1135 238 1121 243 q 1247 540 1194 238 q 1290 917 1290 790 q 1276 1024 1290 1000 q 1375 1111 1301 1111 l 1421 1104 q 1472 1063 1456 1099 q 1488 994 1479 1043 l 1450 654 l 1354 342 q 1282 153 1314 211 q 1144 8 1231 58 z "},"X":{"ha":842,"x_min":38,"x_max":804,"o":"m 404 686 l 628 1101 q 649 1111 633 1107 q 692 1082 669 1111 q 711 1053 697 1074 q 729 1021 719 1038 q 707 896 729 956 q 635 743 683 831 l 536 564 q 668 411 585 547 q 771 221 733 308 q 804 117 804 144 q 800 85 804 100 q 758 32 788 54 q 697 8 729 10 q 606 88 643 7 l 526 256 q 444 371 486 342 l 336 179 q 263 36 285 89 q 224 10 235 15 q 178 0 206 1 q 139 7 154 -1 q 97 82 99 33 q 111 154 96 115 q 126 196 118 174 q 140 219 135 213 q 243 378 204 299 l 308 511 q 165 651 228 571 q 58 868 88 753 q 38 950 38 910 q 66 1025 38 996 q 142 1060 94 1054 l 167 1063 l 179 1063 q 228 1049 215 1063 q 243 999 240 1035 l 242 953 q 285 797 239 865 q 404 686 322 743 z "},"Y":{"ha":1010,"x_min":39,"x_max":958,"o":"m 297 1099 q 336 1046 322 1082 q 347 965 346 1007 q 339 872 349 936 l 331 815 q 353 665 331 744 q 425 579 375 585 l 486 572 q 614 683 551 572 l 736 903 q 918 1019 815 1019 q 957 949 954 1004 q 939 854 958 928 l 921 783 q 856 432 921 635 q 692 110 793 239 q 393 -62 558 -61 q 56 11 81 -65 q 39 83 39 63 q 68 111 39 110 q 146 94 74 111 l 235 74 q 308 69 264 69 q 688 339 556 69 q 746 521 739 443 l 760 667 l 667 518 q 518 447 613 447 q 346 486 411 447 q 232 621 281 525 q 165 871 165 750 l 165 953 q 167 1040 165 1032 q 217 1104 175 1086 l 297 1099 z "},"Z":{"ha":894,"x_min":39,"x_max":854,"o":"m 818 978 q 697 693 819 854 q 482 457 639 615 q 301 261 322 294 q 278 214 288 239 q 340 181 278 188 l 463 168 l 542 153 l 603 149 q 671 158 626 147 l 714 169 q 744 167 736 169 l 806 144 q 853 93 851 128 q 769 32 854 61 q 514 7 706 10 l 425 6 l 339 6 q 154 17 203 6 q 40 133 42 43 q 160 431 39 281 q 397 661 224 510 q 556 844 556 799 q 538 885 556 857 q 458 932 519 914 q 325 950 392 951 l 267 949 q 169 939 232 947 q 146 1004 147 972 q 210 1083 144 1056 q 376 1111 275 1110 q 679 1081 532 1113 q 818 978 817 1050 z "},"[":{"ha":486,"x_min":11,"x_max":465,"o":"m 464 -79 q 393 -167 465 -139 q 269 -187 342 -187 q 78 -160 111 -189 q 39 32 40 -126 q 43 388 38 233 q 32 538 43 403 q 11 785 26 619 l 11 1139 q 307 1304 11 1300 q 407 1271 356 1304 q 464 1188 463 1233 q 448 1148 465 1158 q 400 1136 431 1138 q 313 1142 346 1133 q 221 1113 251 1142 q 179 968 175 1069 q 197 658 185 863 q 206 297 206 510 q 190 67 206 204 q 207 39 190 47 q 392 0 329 14 q 464 -79 463 -28 z "},"\\":{"ha":878,"x_min":54,"x_max":849,"o":"m 814 -50 q 756 -67 789 -67 q 736 -65 743 -67 q 489 261 715 -65 q 333 496 389 406 q 144 838 232 661 q 60 1068 54 1021 q 92 1122 64 1101 q 154 1143 119 1143 q 181 1140 169 1143 q 239 1074 197 1139 q 381 831 299 982 q 515 582 496 615 q 707 281 617 406 q 815 135 743 232 q 849 39 849 88 q 814 -50 849 -26 z "},"]":{"ha":711,"x_min":67,"x_max":686,"o":"m 686 4 q 481 -151 686 -112 q 192 -171 385 -169 q 67 -86 67 -171 q 333 36 67 7 q 407 31 358 36 q 481 26 456 26 q 510 30 503 26 q 526 40 518 33 q 536 61 533 47 l 536 1024 q 294 1104 486 1101 q 224 1137 257 1104 q 192 1207 192 1169 q 282 1293 192 1293 q 501 1239 350 1293 q 686 1100 686 1172 l 686 4 z "},"^":{"ha":813,"x_min":115,"x_max":706,"o":"m 706 793 q 685 742 706 763 q 632 719 664 721 q 526 764 599 718 l 371 861 q 281 767 339 861 q 190 672 222 674 q 117 746 119 671 q 199 896 115 778 q 363 1028 290 1026 q 547 920 390 1028 q 706 793 703 813 z "},"_":{"ha":1000,"x_min":-194,"x_max":1224,"o":"m 1224 -103 q 847 -204 1224 -185 q 406 -208 771 -208 l -8 -208 q -107 -189 -43 -208 q -193 -132 -192 -162 q 19 -62 -194 -78 q 246 -56 89 -57 q 343 -56 246 -56 q 431 -57 403 -56 l 1054 -29 q 1144 -49 1081 -28 q 1224 -103 1224 -74 z "},"`":{"ha":582,"x_min":114,"x_max":460,"o":"m 460 772 q 424 697 460 738 q 358 656 389 656 q 114 963 114 785 q 181 1050 114 1050 q 265 969 208 1050 q 319 883 304 914 q 413 832 347 847 q 460 772 460 821 z "},"a":{"ha":975,"x_min":44,"x_max":931,"o":"m 515 1111 q 703 921 618 1113 q 824 585 797 708 l 931 89 l 921 53 q 901 18 914 29 q 875 3 889 7 l 851 0 q 818 3 828 0 l 790 11 l 790 75 l 792 136 q 767 276 794 232 q 653 321 739 321 q 351 295 411 322 q 258 179 290 268 q 139 18 225 90 l 111 10 l 81 7 q 49 21 58 7 q 44 54 44 33 q 53 136 44 96 q 74 215 64 189 q 190 617 107 303 q 328 1001 258 872 q 515 1111 386 1110 m 344 526 l 401 535 l 436 538 l 528 531 q 593 543 551 529 q 688 596 629 556 q 622 813 675 685 q 544 938 571 936 l 526 939 l 517 939 q 408 771 428 939 q 344 526 389 603 z "},"b":{"ha":975,"x_min":44,"x_max":932,"o":"m 486 1111 q 651 1039 556 1111 q 747 882 747 967 q 728 757 747 808 q 649 654 711 699 q 858 542 779 592 q 932 372 931 496 q 912 311 914 318 q 896 276 910 304 q 683 64 826 136 q 388 0 556 0 q 194 35 267 0 l 61 99 l 44 172 l 68 204 l 192 196 q 171 296 179 253 q 153 393 164 326 q 142 529 143 443 q 157 621 140 593 l 192 654 q 179 689 189 667 q 167 733 179 692 q 154 838 154 775 q 486 1111 154 1111 m 285 899 l 292 660 q 408 678 336 671 q 500 697 467 683 q 611 771 550 717 l 636 843 l 611 947 q 531 968 579 967 l 419 971 q 303 946 317 974 l 285 899 m 290 457 l 290 196 q 342 163 290 163 q 447 179 375 163 q 551 196 518 196 l 653 233 q 765 326 742 267 l 732 443 q 575 494 693 469 q 407 518 464 518 q 322 504 353 518 q 290 457 290 490 z "},"c":{"ha":986,"x_min":43,"x_max":942,"o":"m 543 1111 q 754 1043 624 1111 q 897 904 897 968 q 888 881 897 892 q 649 922 757 919 q 588 918 619 924 q 563 914 578 917 q 549 907 557 914 q 257 836 319 907 q 199 536 199 771 q 378 268 199 357 q 715 175 472 221 q 942 92 940 133 l 904 18 l 772 0 q 382 63 546 0 q 96 319 168 143 q 44 575 46 444 q 185 947 43 790 q 543 1111 331 1111 z "},"d":{"ha":1017,"x_min":60,"x_max":978,"o":"m 94 1111 q 442 1058 172 1094 q 803 975 704 1024 q 978 683 978 889 q 938 424 978 524 q 768 226 889 304 q 351 0 679 169 l 94 0 l 76 144 q 68 279 68 214 q 64 415 68 325 q 60 550 60 504 q 61 656 60 619 l 68 835 q 76 974 68 900 q 94 1111 82 1018 m 256 925 q 250 790 256 878 q 243 656 243 697 q 231 396 239 569 q 233 267 228 340 q 247 132 235 200 l 436 171 l 700 353 q 807 683 758 404 q 729 793 807 751 q 565 848 682 819 q 413 894 447 876 l 256 925 z "},"e":{"ha":1142,"x_min":51,"x_max":1090,"o":"m 704 1125 l 800 1136 q 840 1111 831 1136 l 840 974 q 600 910 711 925 q 469 853 485 894 q 454 579 457 818 q 826 661 746 660 q 897 610 897 663 q 875 528 897 585 q 619 458 747 493 q 429 344 431 404 q 457 213 428 264 q 567 150 492 150 q 662 169 600 150 q 756 189 724 188 q 1081 117 853 192 l 1086 107 q 1090 90 1090 103 q 1079 68 1090 79 q 928 28 1053 42 q 722 18 860 25 q 635 14 685 17 l 346 0 l 288 67 l 286 286 q 260 393 286 392 l 226 385 l 181 378 q 151 379 157 378 q 51 425 118 381 l 51 528 q 81 560 81 535 q 263 588 81 586 q 261 633 263 615 q 254 744 258 681 l 246 875 q 333 1067 238 1003 q 704 1125 421 1125 z "},"f":{"ha":892,"x_min":40,"x_max":851,"o":"m 551 1110 l 706 1111 q 731 1114 715 1113 q 835 1078 814 1114 q 851 960 850 1054 l 776 965 l 669 968 q 303 906 425 975 q 193 743 194 844 q 223 629 192 667 q 328 596 254 592 l 426 601 l 507 608 q 582 601 551 613 q 646 579 614 599 q 678 506 676 565 q 664 435 679 468 l 414 413 l 203 431 l 210 317 l 203 32 l 111 0 l 65 36 q 63 142 65 92 q 53 353 58 235 l 40 558 l 44 701 q 71 915 49 853 q 221 1058 108 1018 q 551 1110 356 1107 z "},"g":{"ha":1047,"x_min":46,"x_max":1000,"o":"m 619 1111 l 700 1104 l 746 1047 q 517 915 714 1031 q 175 413 178 715 q 258 211 174 296 q 460 126 343 126 q 904 508 678 126 q 497 560 718 560 l 465 560 q 419 561 428 560 q 365 603 368 563 q 731 676 374 674 q 933 665 858 678 q 1000 540 1000 654 q 878 297 1000 449 q 678 100 778 176 q 429 0 546 0 q 167 156 292 0 q 47 444 49 303 q 233 856 46 661 q 619 1111 393 1022 z "},"h":{"ha":1119,"x_min":51,"x_max":1040,"o":"m 1029 1090 l 1029 767 l 1038 314 q 1026 151 1040 192 q 965 96 1015 118 q 910 149 935 96 q 886 285 888 196 q 906 421 885 356 q 704 411 778 421 q 553 392 654 406 q 381 414 493 392 l 385 315 q 381 229 386 285 q 374 161 379 204 l 364 6 l 260 0 l 247 210 l 260 414 q 169 406 206 414 l 126 386 l 103 403 l 51 444 q 151 556 90 528 l 239 578 q 257 686 256 631 l 263 867 l 263 1010 q 331 1068 263 1065 q 371 1060 354 1069 q 396 1025 388 1050 l 382 986 l 378 950 q 385 899 378 921 l 392 857 l 388 836 l 372 586 l 524 586 q 617 593 596 586 l 778 610 q 822 603 800 610 l 901 578 q 917 778 901 653 l 933 914 l 933 957 q 926 992 932 969 q 922 1025 926 1007 q 906 1074 918 1043 l 901 1090 l 968 1111 l 1029 1090 z "},"i":{"ha":611,"x_min":28,"x_max":585,"o":"m 413 1111 l 558 1111 q 575 1068 575 1085 q 479 1014 575 1053 q 385 874 379 974 l 388 829 l 394 651 q 397 546 394 615 q 406 400 404 447 q 419 274 406 347 q 438 190 424 251 q 539 167 485 190 q 583 115 582 149 q 550 46 585 99 q 533 19 539 28 q 506 0 522 4 l 450 24 q 394 33 424 31 l 254 25 q 108 97 153 19 q 157 167 108 156 q 269 176 201 176 l 311 176 q 306 357 311 236 q 301 538 301 478 q 279 761 301 575 l 268 854 q 294 961 268 903 l 199 960 l 81 960 q 28 978 28 960 q 31 991 31 986 q 42 1007 32 996 l 65 1047 q 256 1097 131 1094 q 335 1100 315 1099 q 413 1111 386 1103 z "},"j":{"ha":671,"x_min":31,"x_max":642,"o":"m 469 1111 l 624 1111 q 642 1067 640 1088 q 542 1011 642 1050 q 442 865 436 971 l 444 817 l 451 643 l 464 375 q 496 144 469 257 q 418 35 469 69 q 293 0 367 0 q 146 33 219 0 q 31 129 63 71 q 64 182 31 181 q 176 128 83 183 q 303 75 263 76 q 364 129 342 74 q 349 547 364 307 q 339 700 347 596 q 319 843 332 756 l 319 871 q 346 954 325 896 l 242 953 l 154 953 q 67 971 67 953 q 82 1006 67 981 l 106 1044 q 304 1096 171 1094 q 388 1099 364 1097 q 469 1111 446 1101 z "},"k":{"ha":807,"x_min":36,"x_max":771,"o":"m 265 1107 q 313 989 313 1090 q 293 794 313 951 l 274 638 q 299 571 274 579 q 410 674 325 567 l 582 893 q 688 992 664 999 l 747 960 q 769 918 769 949 q 638 713 771 828 q 447 529 546 633 q 546 376 471 506 l 646 204 q 713 126 671 163 l 722 101 l 728 69 q 692 10 728 25 l 668 6 q 631 13 640 6 q 501 178 589 33 q 376 354 440 279 q 239 443 321 421 q 192 227 210 385 q 138 33 174 69 l 83 0 l 36 33 q 93 546 63 224 q 107 726 100 636 q 149 979 122 886 q 243 1111 186 1110 l 265 1107 z "},"l":{"ha":838,"x_min":38,"x_max":801,"o":"m 206 1090 l 246 1104 q 265 1107 256 1104 q 292 1111 282 1110 l 315 1107 q 351 1040 349 1101 q 349 997 353 1019 q 324 915 349 993 q 304 872 318 896 l 275 761 l 226 533 q 206 343 206 436 q 283 221 206 258 q 482 185 357 186 q 713 207 582 183 q 767 218 738 211 l 788 199 q 801 160 796 190 q 793 132 801 149 l 774 104 q 238 0 549 0 l 200 0 q 84 11 118 0 q 38 65 50 22 l 50 467 q 74 632 51 507 q 133 911 106 808 q 206 1090 171 1047 z "},"m":{"ha":1729,"x_min":25,"x_max":1697,"o":"m 510 1090 q 631 965 576 1090 l 732 654 q 868 376 785 492 q 1083 601 1003 472 q 1218 883 1136 685 q 1333 1053 1288 1051 q 1403 1017 1361 1054 q 1521 750 1488 892 q 1565 458 1535 689 q 1646 82 1596 226 l 1679 11 q 1697 -65 1697 -28 q 1621 -132 1697 -132 l 1576 -128 l 1540 -117 q 1453 97 1486 -49 q 1408 371 1432 185 q 1369 618 1386 551 q 1150 467 1228 576 l 1017 279 q 810 188 936 188 q 696 232 717 188 q 626 468 682 263 q 489 807 575 658 q 282 550 351 717 q 201 224 235 435 q 139 43 174 44 q 38 125 108 42 q 25 169 25 132 q 99 504 25 283 q 285 911 178 740 q 510 1090 397 1090 z "},"n":{"ha":1171,"x_min":53,"x_max":1117,"o":"m 1117 1006 l 1097 690 q 1076 543 1079 575 q 1068 408 1068 465 q 1026 124 1068 261 q 931 39 1001 40 q 801 89 882 38 l 331 692 q 314 701 325 697 q 275 586 288 701 q 268 447 268 517 q 315 89 268 199 l 306 60 q 292 29 300 42 q 233 0 278 0 q 163 32 199 0 l 129 69 l 67 367 q 53 499 53 433 q 123 796 53 668 q 292 925 193 924 q 507 750 357 926 q 688 518 533 718 q 857 328 832 329 q 868 347 864 328 q 867 476 868 371 l 865 586 l 860 810 q 888 1035 856 953 l 935 1085 q 993 1111 958 1110 q 1064 1076 1032 1113 q 1117 1006 1081 1053 z "},"o":{"ha":1018,"x_min":46,"x_max":974,"o":"m 528 1111 q 831 922 692 1113 q 972 482 971 731 q 733 129 974 276 q 306 0 524 1 q 97 163 167 -1 q 46 444 46 283 q 160 885 46 693 q 528 1111 294 1110 m 306 444 q 301 433 303 436 q 282 401 300 431 q 264 346 264 371 q 306 260 264 306 l 364 229 q 443 214 389 217 l 510 219 q 654 336 560 224 q 750 593 749 449 q 692 793 751 701 q 519 897 624 897 l 492 894 q 353 757 400 894 q 306 444 308 628 z "},"p":{"ha":743,"x_min":22,"x_max":710,"o":"m 371 1111 q 604 989 496 1113 q 708 743 707 871 q 600 521 710 604 q 357 443 500 444 q 219 475 271 442 l 247 285 q 260 121 263 182 l 258 88 q 256 56 258 76 q 201 0 251 3 l 174 3 q 140 26 157 4 l 107 69 l 57 310 q 33 467 35 417 l 26 743 q 139 1006 22 897 q 371 1111 250 1110 m 197 729 q 214 603 204 635 q 325 579 221 581 q 497 624 429 578 q 586 774 575 675 q 504 889 544 858 q 371 926 457 926 q 235 887 282 928 q 194 768 189 846 l 197 729 z "},"q":{"ha":1183,"x_min":46,"x_max":1124,"o":"m 599 1090 q 938 971 765 1090 q 1124 682 1124 842 q 1018 369 1124 503 q 768 147 892 208 l 643 85 l 636 68 l 633 39 q 704 -144 633 -42 l 710 -161 l 714 -182 q 617 -243 714 -240 q 572 -206 589 -243 q 563 -174 565 -185 q 553 -128 561 -162 q 353 86 472 28 l 133 194 q 46 468 46 268 q 200 894 46 708 q 599 1090 363 1090 m 194 496 q 256 299 193 379 q 419 165 304 236 l 444 210 q 496 335 472 335 q 594 204 533 335 q 856 382 760 264 q 958 676 957 507 q 849 864 960 790 q 632 931 751 929 q 325 803 454 932 q 194 496 196 674 z "},"r":{"ha":749,"x_min":50,"x_max":715,"o":"m 443 1111 q 604 1017 525 1111 q 685 839 683 924 q 568 611 686 701 l 353 447 l 676 215 q 715 114 701 193 q 625 50 674 51 q 519 104 578 49 l 364 250 q 188 392 268 339 l 201 38 l 113 0 l 50 85 l 50 658 q 153 972 50 843 q 443 1111 263 1111 m 179 701 l 188 569 q 393 642 296 569 q 533 810 479 706 q 497 896 525 850 q 431 953 464 953 q 268 876 358 953 q 179 701 174 796 z "},"s":{"ha":813,"x_min":38,"x_max":776,"o":"m 497 1111 q 638 1093 575 1113 q 729 1004 729 1065 q 706 938 729 974 q 673 941 692 939 q 650 943 654 943 q 628 943 644 943 q 592 944 607 944 q 401 911 486 946 q 324 799 325 879 q 481 674 324 764 q 690 547 674 563 q 775 313 774 475 q 632 79 776 171 q 358 0 507 0 q 142 47 247 0 q 38 179 38 94 l 38 246 q 60 283 38 283 q 488 188 251 188 q 557 249 540 199 q 567 347 567 279 q 450 507 567 451 l 233 610 q 115 799 117 681 q 258 1006 114 894 q 497 1111 396 1110 z "},"t":{"ha":842,"x_min":39,"x_max":804,"o":"m 419 1111 q 476 1033 461 1104 q 499 951 493 956 l 543 940 l 615 935 l 701 939 l 769 949 l 792 919 q 804 869 804 903 q 793 833 804 849 l 775 808 l 704 808 q 660 814 688 810 l 546 829 q 517 824 528 829 q 497 786 506 819 q 489 485 489 753 l 490 28 l 404 0 l 333 26 l 319 201 l 315 375 q 322 615 314 425 l 329 778 q 325 826 331 803 q 264 863 301 863 l 217 856 l 161 850 q 63 881 108 850 l 46 904 q 39 931 44 908 q 51 964 39 953 l 74 983 q 195 974 114 983 q 317 965 276 965 q 326 975 325 965 l 324 994 l 322 1014 l 326 1040 q 342 1068 331 1056 q 375 1085 347 1078 q 419 1111 403 1093 z "},"u":{"ha":1035,"x_min":46,"x_max":988,"o":"m 950 1058 l 988 844 l 976 492 q 839 151 949 283 q 517 0 714 0 q 185 169 288 0 q 76 553 119 278 l 47 1043 q 78 1092 46 1075 q 104 1101 99 1099 q 143 1111 104 1101 l 196 1099 q 239 1068 221 1090 l 232 919 l 226 725 q 246 438 222 579 q 323 232 267 311 q 488 151 379 153 q 632 199 576 150 q 726 326 667 229 q 818 711 818 476 q 796 944 818 833 q 774 1036 786 993 l 792 1071 q 835 1088 803 1085 l 881 1092 q 928 1081 917 1092 l 950 1058 z "},"v":{"ha":947,"x_min":42,"x_max":904,"o":"m 843 1111 l 871 1093 q 894 1071 883 1086 q 904 1042 900 1063 q 847 926 904 989 q 694 508 767 768 q 572 132 619 235 q 460 35 544 71 q 360 0 396 7 q 281 82 306 0 q 211 411 257 192 q 115 782 157 696 l 67 882 q 43 968 44 929 q 68 1036 42 1024 q 119 1046 94 1043 q 153 1054 139 1054 q 263 896 214 1054 q 313 689 288 792 q 429 336 390 375 q 447 328 436 332 q 561 583 471 328 q 678 919 619 751 q 843 1111 738 1064 z "},"w":{"ha":1558,"x_min":71,"x_max":1488,"o":"m 1144 8 q 1106 -1 1132 1 q 1056 7 1081 -1 l 1015 28 q 915 226 935 110 l 876 456 q 756 644 858 563 q 651 472 731 651 q 485 108 517 171 q 382 26 443 28 q 343 42 364 26 q 304 93 322 58 q 207 440 258 214 q 115 779 154 674 l 78 882 q 71 919 76 897 l 71 939 q 90 1003 71 971 q 111 1025 94 1008 l 160 1063 l 183 1067 q 285 882 258 1067 q 301 710 286 868 q 324 507 317 547 q 406 354 351 356 q 439 364 421 354 q 542 572 474 419 q 657 781 603 708 q 778 889 724 871 l 844 911 q 932 808 894 911 q 1026 492 958 738 q 1106 257 1086 281 q 1135 238 1121 243 q 1247 540 1194 238 q 1290 917 1290 790 q 1276 1024 1290 1000 q 1375 1111 1301 1111 l 1421 1104 q 1472 1063 1456 1099 q 1488 994 1479 1043 l 1450 654 l 1354 342 q 1282 153 1314 211 q 1144 8 1231 58 z "},"x":{"ha":842,"x_min":38,"x_max":804,"o":"m 404 686 l 628 1101 q 649 1111 633 1107 q 692 1082 669 1111 q 711 1053 697 1074 q 729 1021 719 1038 q 707 896 729 956 q 635 743 683 831 l 536 564 q 668 411 585 547 q 771 221 733 308 q 804 117 804 144 q 800 85 804 100 q 758 32 788 54 q 697 8 729 10 q 606 88 643 7 l 526 256 q 444 371 486 342 l 336 179 q 263 36 285 89 q 224 10 235 15 q 178 0 206 1 q 139 7 154 -1 q 97 82 99 33 q 111 154 96 115 q 126 196 118 174 q 140 219 135 213 q 243 378 204 299 l 308 511 q 165 651 228 571 q 58 868 88 753 q 38 950 38 910 q 66 1025 38 996 q 142 1060 94 1054 l 167 1063 l 179 1063 q 228 1049 215 1063 q 243 999 240 1035 l 242 953 q 285 797 239 865 q 404 686 322 743 z "},"y":{"ha":1010,"x_min":39,"x_max":958,"o":"m 297 1099 q 336 1046 322 1082 q 347 965 346 1007 q 339 872 349 936 l 331 815 q 353 665 331 744 q 425 579 375 585 l 486 572 q 614 683 551 572 l 736 903 q 918 1019 815 1019 q 957 949 954 1004 q 939 854 958 928 l 921 783 q 856 432 921 635 q 692 110 793 239 q 393 -62 558 -61 q 56 11 81 -65 q 39 83 39 63 q 68 111 39 110 q 146 94 74 111 l 235 74 q 308 69 264 69 q 688 339 556 69 q 746 521 739 443 l 760 667 l 667 518 q 518 447 613 447 q 346 486 411 447 q 232 621 281 525 q 165 871 165 750 l 165 953 q 167 1040 165 1032 q 217 1104 175 1086 l 297 1099 z "},"z":{"ha":894,"x_min":39,"x_max":854,"o":"m 818 978 q 697 693 819 854 q 482 457 639 615 q 301 261 322 294 q 278 214 288 239 q 340 181 278 188 l 463 168 l 542 153 l 603 149 q 671 158 626 147 l 714 169 q 744 167 736 169 l 806 144 q 853 93 851 128 q 769 32 854 61 q 514 7 706 10 l 425 6 l 339 6 q 154 17 203 6 q 40 133 42 43 q 160 431 39 281 q 397 661 224 510 q 556 844 556 799 q 538 885 556 857 q 458 932 519 914 q 325 950 392 951 l 267 949 q 169 939 232 947 q 146 1004 147 972 q 210 1083 144 1056 q 376 1111 275 1110 q 679 1081 532 1113 q 818 978 817 1050 z "},"{":{"ha":701,"x_min":53,"x_max":694,"o":"m 694 -94 q 672 -138 694 -122 q 618 -154 649 -154 q 396 -60 567 -154 q 192 124 204 47 q 185 207 185 164 q 190 290 185 242 q 194 351 194 338 q 192 376 194 367 q 147 415 185 396 q 85 451 97 442 q 53 521 53 479 q 122 630 53 569 q 190 744 190 690 q 172 826 190 760 q 153 917 153 892 q 225 1096 153 999 q 396 1204 306 1204 q 446 1185 426 1204 q 461 1149 461 1169 q 372 1038 461 1115 q 283 918 283 961 q 321 819 283 896 q 358 711 358 743 q 316 619 358 665 q 274 568 274 574 q 326 508 274 547 q 378 426 378 469 q 341 323 378 401 q 304 229 304 244 q 406 100 304 163 q 593 4 499 53 q 694 -94 694 -49 z "},"|":{"ha":406,"x_min":97,"x_max":304,"o":"m 304 -192 q 282 -240 304 -214 q 239 -265 260 -265 q 184 -227 207 -265 q 161 -128 161 -189 q 165 -78 161 -103 q 103 826 142 197 q 103 1000 97 938 q 175 1117 129 1117 q 221 1047 196 1117 q 253 818 253 958 q 249 722 253 772 l 304 -40 l 304 -192 z "},"}":{"ha":708,"x_min":4,"x_max":668,"o":"m 668 856 q 626 711 668 765 q 547 650 600 676 q 506 618 506 628 q 549 567 506 603 q 592 489 592 531 q 537 406 592 439 q 482 343 482 374 q 508 300 482 331 q 556 232 542 261 q 582 114 582 181 q 461 -117 582 -53 q 204 -162 375 -162 q 86 -143 151 -162 q 4 -81 4 -118 q 111 -29 4 -35 q 310 -12 285 -19 q 417 108 417 14 q 350 232 417 125 q 283 374 283 339 q 312 444 283 407 q 340 499 340 481 q 299 572 340 526 q 258 651 258 618 q 322 729 258 704 q 439 771 381 750 q 503 872 503 803 q 419 1007 503 933 q 265 1128 343 1067 q 182 1240 182 1194 q 208 1292 182 1263 q 258 1322 233 1322 q 371 1261 276 1322 q 565 1094 489 1183 q 668 856 668 975 z "},"~":{"ha":1257,"x_min":39,"x_max":1214,"o":"m 1214 469 q 1175 404 1214 451 q 1047 301 1124 340 q 815 247 944 247 q 585 304 671 247 q 469 413 526 358 q 315 469 406 469 q 225 424 257 469 q 186 338 222 418 q 135 292 167 292 q 67 321 96 292 q 39 400 39 350 q 83 543 39 469 q 297 661 153 661 q 511 604 421 661 q 642 496 576 550 q 804 439 717 439 q 998 500 890 439 q 1124 561 1106 561 q 1182 532 1150 561 q 1214 469 1214 503 z "},"¢":{"ha":743,"x_min":85,"x_max":683,"o":"m 683 354 q 596 213 683 274 l 501 165 q 482 92 482 153 l 482 44 q 422 -44 482 -43 q 375 17 390 -46 q 254 210 336 171 q 86 483 89 288 q 289 744 85 664 q 353 835 336 763 q 367 958 360 896 q 403 1019 374 1019 q 468 1007 447 1019 q 486 974 483 997 q 481 938 486 957 q 464 865 464 881 q 472 830 464 844 q 542 781 479 815 q 592 703 592 753 q 549 658 592 672 q 453 497 453 626 q 464 400 453 461 q 496 322 478 322 q 563 368 532 322 q 628 414 593 414 q 674 404 665 414 q 683 371 683 394 l 683 354 m 335 468 q 328 494 333 478 q 326 515 328 508 q 327 532 326 525 q 331 543 328 539 q 299 588 331 558 q 246 513 276 565 q 225 469 238 499 q 250 390 225 417 q 326 349 269 369 q 332 410 326 349 q 335 468 333 431 z "},"¤":{"ha":1125,"x_min":28,"x_max":1100,"o":"m 1100 1039 q 1040 906 1100 997 q 979 806 979 815 q 1010 712 979 811 q 1042 496 1042 613 q 963 282 1042 393 q 1060 128 1060 213 q 1025 65 1060 82 q 943 53 1000 53 q 852 94 893 53 q 793 135 811 135 q 738 103 793 135 q 603 44 674 65 q 388 13 500 13 q 242 68 307 13 q 136 0 186 0 q 79 22 106 0 q 43 104 43 51 q 91 203 43 153 q 142 265 139 254 q 135 318 144 274 q 124 456 124 375 q 147 659 124 561 q 171 751 171 757 q 99 869 171 775 q 28 1011 28 964 q 51 1077 28 1051 q 113 1103 75 1103 q 213 1072 172 1103 q 263 1018 231 1060 q 306 988 286 988 q 349 1021 313 988 q 439 1081 393 1060 q 594 1114 508 1114 q 842 1000 713 1114 q 917 1082 879 1042 q 1007 1108 944 1108 q 1100 1039 1100 1108 m 817 601 q 746 822 817 738 q 583 901 681 901 q 453 811 497 901 q 406 621 421 747 q 385 450 394 536 q 361 404 385 447 q 338 360 338 361 q 389 272 338 315 q 515 226 446 226 q 724 341 631 226 q 817 601 817 456 z "},"¨":{"ha":975,"x_min":271,"x_max":651,"o":"m 329 1336 q 371 1322 360 1335 q 382 1289 382 1310 q 357 1240 382 1256 q 324 1228 340 1228 q 286 1242 300 1228 q 272 1281 271 1265 q 284 1325 272 1313 q 329 1336 296 1338 m 600 1347 q 642 1334 632 1347 q 651 1294 651 1321 q 632 1260 651 1275 q 594 1244 619 1250 q 540 1304 540 1244 q 558 1343 540 1329 q 590 1350 560 1344 q 600 1347 599 1350 z "},"©":{"ha":1222,"x_min":54,"x_max":1167,"o":"m 513 1111 q 966 966 765 1111 q 1167 654 1167 821 q 840 49 1167 163 q 513 0 707 1 q 319 69 440 0 q 154 193 215 131 q 56 457 57 294 q 168 881 54 685 q 513 1111 300 1111 m 251 522 q 546 196 249 197 q 897 322 785 194 q 1003 686 1001 443 q 840 835 1003 750 q 611 915 688 915 q 357 796 461 915 q 251 522 253 676 m 611 811 q 706 781 646 811 q 774 717 771 747 l 769 706 l 707 719 l 657 725 l 628 724 q 613 718 619 724 q 481 686 508 718 q 451 547 453 654 q 539 426 450 471 q 703 375 590 399 q 794 342 793 354 l 776 308 l 717 300 q 449 380 517 300 q 381 564 382 460 q 446 737 379 663 q 611 811 513 811 z "},"®":{"ha":1422,"x_min":104,"x_max":1358,"o":"m 1358 526 q 1333 454 1358 515 q 1183 222 1271 304 q 989 71 1072 119 q 753 3 874 3 q 310 132 499 1 q 104 504 104 274 l 104 664 q 157 786 119 704 q 371 1014 229 922 q 826 1136 557 1135 q 1157 1013 981 1138 q 1358 686 1358 869 l 1358 526 m 1197 615 q 1096 868 1199 757 q 851 1014 961 1014 q 750 975 804 1014 q 749 977 750 976 q 746 978 747 978 q 706 985 733 983 q 640 978 672 986 q 544 953 610 975 q 353 772 471 936 q 264 531 265 650 q 435 250 263 378 q 707 139 583 140 q 922 211 799 138 q 1099 358 1033 278 q 1197 615 1196 479 m 992 326 q 990 301 992 313 q 986 283 989 290 l 949 283 q 719 475 851 357 q 675 406 689 475 q 628 336 661 338 q 572 449 611 336 q 538 567 564 483 q 546 675 538 643 q 567 758 551 703 q 543 815 567 803 q 483 861 497 839 q 567 900 518 890 q 658 908 603 908 q 886 863 814 910 q 956 717 954 818 q 921 632 956 667 q 856 583 907 617 q 817 542 818 561 q 904 454 817 511 q 992 326 992 397 m 856 747 q 809 806 856 767 q 742 847 763 844 q 672 807 697 847 q 650 725 650 772 q 682 656 650 683 q 728 633 706 636 q 800 681 747 633 q 856 747 853 728 z "},"´":{"ha":1118,"x_min":322,"x_max":653,"o":"m 651 1546 q 557 1322 653 1449 q 379 1196 461 1196 q 336 1217 353 1196 q 322 1250 325 1236 q 361 1310 322 1261 q 460 1439 388 1342 q 529 1567 461 1442 q 585 1611 553 1610 q 651 1546 650 1613 z "},"¶":{"ha":1013,"x_min":36,"x_max":972,"o":"m 969 646 q 956 396 969 519 q 928 188 942 292 q 917 58 922 122 q 875 -124 903 -57 q 769 -217 835 -217 q 731 -174 742 -217 q 719 -83 724 -149 l 775 300 q 696 308 697 290 q 693 324 694 322 q 665 178 689 324 q 610 -93 638 1 q 521 -239 568 -239 q 436 -104 436 -239 q 529 308 460 13 q 376 328 478 303 q 151 432 238 361 q 36 675 36 528 q 190 964 36 819 q 553 1119 354 1119 q 904 972 801 1119 q 972 722 972 875 q 971 674 972 700 q 969 646 969 647 m 814 614 q 806 750 814 718 q 714 863 788 828 l 700 471 l 742 479 q 801 532 786 496 q 814 614 814 560 m 550 479 l 550 892 l 457 892 q 338 835 397 863 q 222 699 222 767 q 354 538 222 604 q 514 479 382 524 l 550 479 z "},"¸":{"ha":989,"x_min":358,"x_max":731,"o":"m 528 4 q 663 -36 654 -32 q 731 -142 731 -68 q 656 -274 731 -226 q 489 -317 589 -317 q 410 -269 410 -317 q 431 -200 410 -214 q 496 -191 440 -196 q 599 -161 551 -186 q 518 -132 585 -137 q 410 -118 426 -124 q 367 -50 358 -101 l 376 33 q 411 139 383 47 q 511 200 429 200 q 572 184 546 200 q 597 144 597 168 q 558 64 597 119 q 506 -28 514 0 l 528 4 z "},"¿":{"ha":1028,"x_min":104,"x_max":924,"o":"m 106 163 q 190 342 104 258 q 347 482 243 388 q 433 626 432 558 q 407 692 433 633 q 393 754 394 721 q 410 828 392 810 q 486 847 429 846 q 568 793 517 847 q 631 644 631 728 q 528 424 631 533 q 303 186 453 346 q 386 121 303 135 q 507 114 417 115 q 744 164 668 113 q 824 189 782 189 q 890 160 857 189 q 924 99 922 132 q 893 50 904 68 q 493 -93 775 -93 q 240 -39 344 -93 q 106 163 107 29 m 400 1071 q 447 1168 399 1121 q 528 1217 496 1215 q 594 1176 547 1218 q 649 1088 649 1129 q 599 1029 631 1065 q 508 971 543 971 q 435 1001 469 971 q 400 1071 401 1032 z "},"À":{"ha":975,"x_min":44,"x_max":931,"o":"m 515 1111 q 703 921 618 1113 q 824 585 797 708 l 931 89 l 921 53 q 901 18 914 29 q 875 3 889 7 l 851 0 q 818 3 828 0 l 790 11 l 790 75 l 792 136 q 767 276 794 232 q 653 321 739 321 q 351 295 411 322 q 258 179 290 268 q 139 18 225 90 l 111 10 l 81 7 q 49 21 58 7 q 44 54 44 33 q 53 136 44 96 q 74 215 64 189 q 190 617 107 303 q 328 1001 258 872 q 515 1111 386 1110 m 344 526 l 401 535 l 436 538 l 528 531 q 593 543 551 529 q 688 596 629 556 q 622 813 675 685 q 544 938 571 936 l 526 939 l 517 939 q 408 771 428 939 q 344 526 389 603 m 668 1328 q 628 1258 668 1294 q 556 1222 588 1222 q 322 1518 322 1340 q 389 1606 322 1606 q 471 1528 417 1606 q 521 1444 504 1478 q 618 1390 549 1408 q 668 1328 668 1376 z "},"Á":{"ha":975,"x_min":44,"x_max":931,"o":"m 515 1111 q 703 921 618 1113 q 824 585 797 708 l 931 89 l 921 53 q 901 18 914 29 q 875 3 889 7 l 851 0 q 818 3 828 0 l 790 11 l 790 75 l 792 136 q 767 276 794 232 q 653 321 739 321 q 351 295 411 322 q 258 179 290 268 q 139 18 225 90 l 111 10 l 81 7 q 49 21 58 7 q 44 54 44 33 q 53 136 44 96 q 74 215 64 189 q 190 617 107 303 q 328 1001 258 872 q 515 1111 386 1110 m 344 526 l 401 535 l 436 538 l 528 531 q 593 543 551 529 q 688 596 629 556 q 622 813 675 685 q 544 938 571 936 l 526 939 l 517 939 q 408 771 428 939 q 344 526 389 603 m 610 1546 q 515 1322 611 1449 q 338 1196 419 1196 q 294 1217 311 1196 q 281 1250 283 1236 q 319 1310 281 1261 q 418 1439 346 1342 q 488 1567 419 1442 q 543 1611 511 1610 q 610 1546 608 1613 z "},"Â":{"ha":975,"x_min":44,"x_max":931,"o":"m 515 1111 q 703 921 618 1113 q 824 585 797 708 l 931 89 l 921 53 q 901 18 914 29 q 875 3 889 7 l 851 0 q 818 3 828 0 l 790 11 l 790 75 l 792 136 q 767 276 794 232 q 653 321 739 321 q 351 295 411 322 q 258 179 290 268 q 139 18 225 90 l 111 10 l 81 7 q 49 21 58 7 q 44 54 44 33 q 53 136 44 96 q 74 215 64 189 q 190 617 107 303 q 328 1001 258 872 q 515 1111 386 1110 m 344 526 l 401 535 l 436 538 l 528 531 q 593 543 551 529 q 688 596 629 556 q 622 813 675 685 q 544 938 571 936 l 526 939 l 517 939 q 408 771 428 939 q 344 526 389 603 m 810 1311 q 789 1260 810 1281 q 736 1238 768 1239 q 631 1282 703 1236 l 475 1379 q 385 1285 443 1379 q 294 1190 326 1192 q 221 1264 224 1189 q 303 1414 219 1296 q 467 1546 394 1544 q 651 1438 494 1546 q 810 1311 807 1331 z "},"Ã":{"ha":975,"x_min":44,"x_max":931,"o":"m 842 1344 q 792 1274 842 1319 q 621 1211 724 1211 q 506 1240 549 1211 q 446 1294 476 1267 q 371 1322 415 1322 q 315 1278 332 1322 q 281 1233 297 1233 q 233 1253 253 1233 q 213 1310 213 1274 q 238 1393 213 1350 q 361 1460 278 1460 q 503 1404 440 1460 q 615 1349 567 1349 q 713 1379 658 1349 q 775 1410 767 1410 q 818 1390 794 1410 q 842 1344 842 1369 m 931 89 l 921 53 q 901 18 914 29 q 875 3 889 7 l 851 0 q 818 3 828 0 l 790 11 l 790 75 l 792 136 q 767 276 794 232 q 653 321 739 321 q 351 295 411 322 q 258 179 290 268 q 139 18 225 90 l 111 10 l 81 7 q 49 21 58 7 q 44 54 44 33 q 53 136 44 96 q 74 215 64 189 q 190 617 107 303 q 328 1001 258 872 q 515 1111 386 1110 q 703 921 618 1113 q 824 585 797 708 l 931 89 m 688 596 q 622 813 675 685 q 544 938 571 936 l 526 939 l 517 939 q 408 771 428 939 q 344 526 389 603 l 401 535 l 436 538 l 528 531 q 593 543 551 529 q 688 596 629 556 z "},"Ä":{"ha":975,"x_min":44,"x_max":931,"o":"m 515 1111 q 703 921 618 1113 q 824 585 797 708 l 931 89 l 921 53 q 901 18 914 29 q 875 3 889 7 l 851 0 q 818 3 828 0 l 790 11 l 790 75 l 792 136 q 767 276 794 232 q 653 321 739 321 q 351 295 411 322 q 258 179 290 268 q 139 18 225 90 l 111 10 l 81 7 q 49 21 58 7 q 44 54 44 33 q 53 136 44 96 q 74 215 64 189 q 190 617 107 303 q 328 1001 258 872 q 515 1111 386 1110 m 344 526 l 401 535 l 436 538 l 528 531 q 593 543 551 529 q 688 596 629 556 q 622 813 675 685 q 544 938 571 936 l 526 939 l 517 939 q 408 771 428 939 q 344 526 389 603 m 329 1336 q 371 1322 360 1335 q 382 1289 382 1310 q 357 1240 382 1256 q 324 1228 340 1228 q 286 1242 300 1228 q 272 1281 271 1265 q 284 1325 272 1313 q 329 1336 296 1338 m 600 1347 q 642 1334 632 1347 q 651 1294 651 1321 q 632 1260 651 1275 q 594 1244 619 1250 q 540 1304 540 1244 q 558 1343 540 1329 q 590 1350 560 1344 q 600 1347 599 1350 z "},"Å":{"ha":975,"x_min":44,"x_max":931,"o":"m 647 1351 q 578 1231 647 1285 q 465 1183 517 1183 q 403 1222 425 1183 q 383 1306 383 1257 q 415 1438 383 1401 q 521 1474 447 1474 q 647 1351 647 1474 m 931 89 l 921 53 q 901 18 914 29 q 875 3 889 7 l 851 0 q 818 3 828 0 l 790 11 l 790 75 l 792 136 q 767 276 794 232 q 653 321 739 321 q 351 295 411 322 q 258 179 290 268 q 139 18 225 90 l 111 10 l 81 7 q 49 21 58 7 q 44 54 44 33 q 53 136 44 96 q 74 215 64 189 q 190 617 107 303 q 328 1001 258 872 q 515 1111 386 1110 q 703 921 618 1113 q 824 585 797 708 l 931 89 m 546 1353 q 534 1370 546 1361 q 514 1379 522 1379 q 487 1357 500 1379 q 474 1322 474 1335 q 501 1303 474 1315 q 546 1353 546 1347 m 688 596 q 622 813 675 685 q 544 938 571 936 l 526 939 l 517 939 q 408 771 428 939 q 344 526 389 603 l 401 535 l 436 538 l 528 531 q 593 543 551 529 q 688 596 629 556 z "},"Ç":{"ha":989,"x_min":40,"x_max":942,"o":"m 942 100 q 851 10 942 26 q 668 10 800 1 q 528 4 554 18 q 663 -36 654 -32 q 731 -142 731 -68 q 656 -274 731 -226 q 489 -317 589 -317 q 410 -269 410 -317 q 431 -200 410 -214 q 496 -191 440 -196 q 599 -161 551 -186 q 531 -132 585 -137 q 443 -118 457 -124 q 394 -51 399 -103 q 393 -15 393 -32 q 397 31 393 11 q 400 51 400 51 q 376 68 400 57 q 268 129 329 90 q 40 589 40 276 q 187 963 40 801 q 535 1125 333 1125 q 732 1071 622 1125 q 896 938 847 1014 l 896 899 q 749 932 838 917 q 642 944 669 944 q 345 910 440 944 q 217 794 250 876 q 190 581 190 728 q 275 329 190 406 q 496 232 331 281 q 783 158 650 188 q 913 131 911 131 q 942 100 942 122 z "},"È":{"ha":1118,"x_min":51,"x_max":1090,"o":"m 704 1125 q 868 1042 865 1126 l 833 967 q 568 903 711 919 q 465 840 493 894 q 447 718 444 799 q 454 579 454 497 q 826 661 746 660 q 897 610 897 663 q 875 528 897 585 q 619 458 747 493 q 429 344 431 404 q 457 213 428 264 q 567 150 492 150 q 758 172 632 150 q 946 194 883 193 q 1081 117 1076 197 l 1086 107 q 1090 90 1090 103 q 1079 68 1090 79 q 1014 43 1064 53 l 814 6 q 635 -14 781 0 l 594 -14 q 436 -8 597 -14 q 343 10 365 -6 q 325 26 333 17 q 310 44 317 36 l 288 81 l 286 296 q 260 401 286 400 l 225 390 q 174 381 204 383 q 51 425 111 381 l 51 528 q 80 557 79 535 q 263 581 81 579 q 254 739 263 607 l 246 871 q 335 1065 238 999 q 554 1119 396 1108 q 704 1125 615 1124 m 696 1328 q 656 1258 696 1294 q 583 1222 615 1222 q 350 1518 350 1340 q 417 1606 350 1606 q 499 1528 444 1606 q 549 1444 532 1478 q 646 1390 576 1408 q 696 1328 696 1376 z "},"É":{"ha":1118,"x_min":51,"x_max":1090,"o":"m 704 1125 q 868 1042 865 1126 l 833 967 q 568 903 711 919 q 465 840 493 894 q 447 718 444 799 q 454 579 454 497 q 826 661 746 660 q 897 610 897 663 q 875 528 897 585 q 619 458 747 493 q 429 344 431 404 q 457 213 428 264 q 567 150 492 150 q 758 172 632 150 q 946 194 883 193 q 1081 117 1076 197 l 1086 107 q 1090 90 1090 103 q 1079 68 1090 79 q 1014 43 1064 53 l 814 6 q 635 -14 781 0 l 594 -14 q 436 -8 597 -14 q 343 10 365 -6 q 325 26 333 17 q 310 44 317 36 l 288 81 l 286 296 q 260 401 286 400 l 225 390 q 174 381 204 383 q 51 425 111 381 l 51 528 q 80 557 79 535 q 263 581 81 579 q 254 739 263 607 l 246 871 q 335 1065 238 999 q 554 1119 396 1108 q 704 1125 615 1124 m 651 1546 q 557 1322 653 1449 q 379 1196 461 1196 q 336 1217 353 1196 q 322 1250 325 1236 q 361 1310 322 1261 q 460 1439 388 1342 q 529 1567 461 1442 q 585 1611 553 1610 q 651 1546 650 1613 z "},"Ê":{"ha":1118,"x_min":51,"x_max":1090,"o":"m 704 1125 q 868 1042 865 1126 l 833 967 q 568 903 711 919 q 465 840 493 894 q 447 718 444 799 q 454 579 454 497 q 826 661 746 660 q 897 610 897 663 q 875 528 897 585 q 619 458 747 493 q 429 344 431 404 q 457 213 428 264 q 567 150 492 150 q 758 172 632 150 q 946 194 883 193 q 1081 117 1076 197 l 1086 107 q 1090 90 1090 103 q 1079 68 1090 79 q 1014 43 1064 53 l 814 6 q 635 -14 781 0 l 594 -14 q 436 -8 597 -14 q 343 10 365 -6 q 325 26 333 17 q 310 44 317 36 l 288 81 l 286 296 q 260 401 286 400 l 225 390 q 174 381 204 383 q 51 425 111 381 l 51 528 q 80 557 79 535 q 263 581 81 579 q 254 739 263 607 l 246 871 q 335 1065 238 999 q 554 1119 396 1108 q 704 1125 615 1124 m 851 1311 q 831 1260 851 1281 q 778 1238 810 1239 q 672 1282 744 1236 l 517 1379 q 426 1285 485 1379 q 336 1190 368 1192 q 263 1264 265 1189 q 344 1414 261 1296 q 508 1546 436 1544 q 692 1438 536 1546 q 851 1311 849 1331 z "},"Ë":{"ha":1118,"x_min":51,"x_max":1090,"o":"m 704 1125 q 868 1042 865 1126 l 833 967 q 568 903 711 919 q 465 840 493 894 q 447 718 444 799 q 454 579 454 497 q 826 661 746 660 q 897 610 897 663 q 875 528 897 585 q 619 458 747 493 q 429 344 431 404 q 457 213 428 264 q 567 150 492 150 q 758 172 632 150 q 946 194 883 193 q 1081 117 1076 197 l 1086 107 q 1090 90 1090 103 q 1079 68 1090 79 q 1014 43 1064 53 l 814 6 q 635 -14 781 0 l 594 -14 q 436 -8 597 -14 q 343 10 365 -6 q 325 26 333 17 q 310 44 317 36 l 288 81 l 286 296 q 260 401 286 400 l 225 390 q 174 381 204 383 q 51 425 111 381 l 51 528 q 80 557 79 535 q 263 581 81 579 q 254 739 263 607 l 246 871 q 335 1065 238 999 q 554 1119 396 1108 q 704 1125 615 1124 m 371 1336 q 413 1322 401 1335 q 424 1289 424 1310 q 399 1240 424 1256 q 365 1228 382 1228 q 328 1242 342 1228 q 314 1281 313 1265 q 326 1325 314 1313 q 371 1336 338 1338 m 642 1347 q 683 1334 674 1347 q 693 1294 693 1321 q 674 1260 693 1275 q 636 1244 661 1250 q 582 1304 582 1244 q 600 1343 582 1329 q 632 1350 601 1344 q 642 1347 640 1350 z "},"Ì":{"ha":611,"x_min":28,"x_max":585,"o":"m 413 1111 l 558 1111 q 575 1068 575 1085 q 479 1014 575 1053 q 385 874 379 974 l 388 829 l 394 651 q 397 546 394 615 q 406 400 404 447 q 419 274 406 347 q 438 190 424 251 q 539 167 485 190 q 583 115 582 149 q 550 46 585 99 q 533 19 539 28 q 506 0 522 4 l 450 24 q 394 33 424 31 l 254 25 q 108 97 153 19 q 157 167 108 156 q 269 176 201 176 l 311 176 q 306 357 311 236 q 301 538 301 478 q 279 761 301 575 l 268 854 q 294 961 268 903 l 199 960 l 81 960 q 28 978 28 960 q 31 991 31 986 q 42 1007 32 996 l 65 1047 q 256 1097 131 1094 q 335 1100 315 1099 q 413 1111 386 1103 m 501 1328 q 461 1258 501 1294 q 389 1222 421 1222 q 156 1518 156 1340 q 222 1606 156 1606 q 304 1528 250 1606 q 354 1444 338 1478 q 451 1390 382 1408 q 501 1328 501 1376 z "},"Í":{"ha":611,"x_min":28,"x_max":585,"o":"m 413 1111 l 558 1111 q 575 1068 575 1085 q 479 1014 575 1053 q 385 874 379 974 l 388 829 l 394 651 q 397 546 394 615 q 406 400 404 447 q 419 274 406 347 q 438 190 424 251 q 539 167 485 190 q 583 115 582 149 q 550 46 585 99 q 533 19 539 28 q 506 0 522 4 l 450 24 q 394 33 424 31 l 254 25 q 108 97 153 19 q 157 167 108 156 q 269 176 201 176 l 311 176 q 306 357 311 236 q 301 538 301 478 q 279 761 301 575 l 268 854 q 294 961 268 903 l 199 960 l 81 960 q 28 978 28 960 q 31 991 31 986 q 42 1007 32 996 l 65 1047 q 256 1097 131 1094 q 335 1100 315 1099 q 413 1111 386 1103 m 443 1546 q 349 1322 444 1449 q 171 1196 253 1196 q 128 1217 144 1196 q 114 1250 117 1236 q 153 1310 114 1261 q 251 1439 179 1342 q 321 1567 253 1442 q 376 1611 344 1610 q 443 1546 442 1613 z "},"Î":{"ha":611,"x_min":28,"x_max":643,"o":"m 413 1111 l 558 1111 q 575 1068 575 1085 q 479 1014 575 1053 q 385 874 379 974 l 388 829 l 394 651 q 397 546 394 615 q 406 400 404 447 q 419 274 406 347 q 438 190 424 251 q 539 167 485 190 q 583 115 582 149 q 550 46 585 99 q 533 19 539 28 q 506 0 522 4 l 450 24 q 394 33 424 31 l 254 25 q 108 97 153 19 q 157 167 108 156 q 269 176 201 176 l 311 176 q 306 357 311 236 q 301 538 301 478 q 279 761 301 575 l 268 854 q 294 961 268 903 l 199 960 l 81 960 q 28 978 28 960 q 31 991 31 986 q 42 1007 32 996 l 65 1047 q 256 1097 131 1094 q 335 1100 315 1099 q 413 1111 386 1103 m 643 1311 q 622 1260 643 1281 q 569 1238 601 1239 q 464 1282 536 1236 l 308 1379 q 218 1285 276 1379 q 128 1190 160 1192 q 54 1264 57 1189 q 136 1414 53 1296 q 300 1546 228 1544 q 484 1438 328 1546 q 643 1311 640 1331 z "},"Ï":{"ha":611,"x_min":28,"x_max":585,"o":"m 413 1111 l 558 1111 q 575 1068 575 1085 q 479 1014 575 1053 q 385 874 379 974 l 388 829 l 394 651 q 397 546 394 615 q 406 400 404 447 q 419 274 406 347 q 438 190 424 251 q 539 167 485 190 q 583 115 582 149 q 550 46 585 99 q 533 19 539 28 q 506 0 522 4 l 450 24 q 394 33 424 31 l 254 25 q 108 97 153 19 q 157 167 108 156 q 269 176 201 176 l 311 176 q 306 357 311 236 q 301 538 301 478 q 279 761 301 575 l 268 854 q 294 961 268 903 l 199 960 l 81 960 q 28 978 28 960 q 31 991 31 986 q 42 1007 32 996 l 65 1047 q 256 1097 131 1094 q 335 1100 315 1099 q 413 1111 386 1103 m 163 1336 q 204 1322 193 1335 q 215 1289 215 1310 q 190 1240 215 1256 q 157 1228 174 1228 q 119 1242 133 1228 q 106 1281 104 1265 q 117 1325 106 1313 q 163 1336 129 1338 m 433 1347 q 475 1334 465 1347 q 485 1294 485 1321 q 465 1260 485 1275 q 428 1244 453 1250 q 374 1304 374 1244 q 392 1343 374 1329 q 424 1350 393 1344 q 433 1347 432 1350 z "},"Ñ":{"ha":1161,"x_min":53,"x_max":1117,"o":"m 842 1344 q 792 1274 842 1319 q 621 1211 724 1211 q 506 1240 549 1211 q 446 1294 476 1267 q 371 1322 415 1322 q 315 1278 332 1322 q 281 1233 297 1233 q 233 1253 253 1233 q 213 1310 213 1274 q 238 1393 213 1350 q 361 1460 278 1460 q 503 1404 440 1460 q 615 1349 567 1349 q 713 1379 658 1349 q 775 1410 767 1410 q 818 1390 794 1410 q 842 1344 842 1369 m 1117 1006 l 1097 690 q 1076 543 1079 575 q 1068 408 1068 465 q 1026 124 1068 261 q 931 39 1001 40 q 801 89 882 38 l 331 692 q 314 701 325 697 q 275 586 288 701 q 268 447 268 517 q 315 89 268 199 l 306 60 q 292 29 300 42 q 233 0 278 0 q 163 32 199 0 l 129 69 l 67 367 q 53 499 53 433 q 123 796 53 668 q 292 925 193 924 q 507 750 357 926 q 688 518 533 718 q 857 328 832 329 q 868 347 864 328 q 867 476 868 371 l 865 586 l 860 810 q 888 1035 856 953 l 935 1085 q 993 1111 958 1110 q 1064 1076 1032 1113 q 1117 1006 1081 1053 z "},"Ò":{"ha":1018,"x_min":46,"x_max":974,"o":"m 528 1111 q 831 922 692 1113 q 972 482 971 731 q 733 129 974 276 q 306 0 524 1 q 97 163 167 -1 q 46 444 46 283 q 160 885 46 693 q 528 1111 294 1110 m 306 444 q 301 433 303 436 q 282 401 300 431 q 264 346 264 371 q 306 260 264 306 l 364 229 q 443 214 389 217 l 510 219 q 654 336 560 224 q 750 593 749 449 q 692 793 751 701 q 519 897 624 897 l 492 894 q 353 757 400 894 q 306 444 308 628 m 668 1328 q 628 1258 668 1294 q 556 1222 588 1222 q 322 1518 322 1340 q 389 1606 322 1606 q 471 1528 417 1606 q 521 1444 504 1478 q 618 1390 549 1408 q 668 1328 668 1376 z "},"Ó":{"ha":1018,"x_min":46,"x_max":974,"o":"m 528 1111 q 831 922 692 1113 q 972 482 971 731 q 733 129 974 276 q 306 0 524 1 q 97 163 167 -1 q 46 444 46 283 q 160 885 46 693 q 528 1111 294 1110 m 306 444 q 301 433 303 436 q 282 401 300 431 q 264 346 264 371 q 306 260 264 306 l 364 229 q 443 214 389 217 l 510 219 q 654 336 560 224 q 750 593 749 449 q 692 793 751 701 q 519 897 624 897 l 492 894 q 353 757 400 894 q 306 444 308 628 m 610 1546 q 515 1322 611 1449 q 338 1196 419 1196 q 294 1217 311 1196 q 281 1250 283 1236 q 319 1310 281 1261 q 418 1439 346 1342 q 488 1567 419 1442 q 543 1611 511 1610 q 610 1546 608 1613 z "},"Ô":{"ha":1018,"x_min":46,"x_max":974,"o":"m 528 1111 q 831 922 692 1113 q 972 482 971 731 q 733 129 974 276 q 306 0 524 1 q 97 163 167 -1 q 46 444 46 283 q 160 885 46 693 q 528 1111 294 1110 m 306 444 q 301 433 303 436 q 282 401 300 431 q 264 346 264 371 q 306 260 264 306 l 364 229 q 443 214 389 217 l 510 219 q 654 336 560 224 q 750 593 749 449 q 692 793 751 701 q 519 897 624 897 l 492 894 q 353 757 400 894 q 306 444 308 628 m 810 1311 q 789 1260 810 1281 q 736 1238 768 1239 q 631 1282 703 1236 l 475 1379 q 385 1285 443 1379 q 294 1190 326 1192 q 221 1264 224 1189 q 303 1414 219 1296 q 467 1546 394 1544 q 651 1438 494 1546 q 810 1311 807 1331 z "},"Õ":{"ha":1018,"x_min":46,"x_max":974,"o":"m 528 1111 q 831 922 692 1113 q 972 482 971 731 q 733 129 974 276 q 306 0 524 1 q 97 163 167 -1 q 46 444 46 283 q 160 885 46 693 q 528 1111 294 1110 m 306 444 q 301 433 303 436 q 282 401 300 431 q 264 346 264 371 q 306 260 264 306 l 364 229 q 443 214 389 217 l 510 219 q 654 336 560 224 q 750 593 749 449 q 692 793 751 701 q 519 897 624 897 l 492 894 q 353 757 400 894 q 306 444 308 628 m 842 1344 q 792 1274 842 1319 q 621 1211 724 1211 q 506 1240 549 1211 q 446 1294 476 1267 q 371 1322 415 1322 q 315 1278 332 1322 q 281 1233 297 1233 q 233 1253 253 1233 q 213 1310 213 1274 q 238 1393 213 1350 q 361 1460 278 1460 q 503 1404 440 1460 q 615 1349 567 1349 q 713 1379 658 1349 q 775 1410 767 1410 q 818 1390 794 1410 q 842 1344 842 1369 z "},"Ö":{"ha":1018,"x_min":46,"x_max":974,"o":"m 528 1111 q 831 922 692 1113 q 972 482 971 731 q 733 129 974 276 q 306 0 524 1 q 97 163 167 -1 q 46 444 46 283 q 160 885 46 693 q 528 1111 294 1110 m 306 444 q 301 433 303 436 q 282 401 300 431 q 264 346 264 371 q 306 260 264 306 l 364 229 q 443 214 389 217 l 510 219 q 654 336 560 224 q 750 593 749 449 q 692 793 751 701 q 519 897 624 897 l 492 894 q 353 757 400 894 q 306 444 308 628 m 329 1336 q 371 1322 360 1335 q 382 1289 382 1310 q 357 1240 382 1256 q 324 1228 340 1228 q 286 1242 300 1228 q 272 1281 271 1265 q 284 1325 272 1313 q 329 1336 296 1338 m 600 1347 q 642 1334 632 1347 q 651 1294 651 1321 q 632 1260 651 1275 q 594 1244 619 1250 q 540 1304 540 1244 q 558 1343 540 1329 q 590 1350 560 1344 q 600 1347 599 1350 z "},"Ù":{"ha":1035,"x_min":46,"x_max":988,"o":"m 950 1058 l 988 844 l 976 492 q 839 151 949 283 q 517 0 714 0 q 185 169 288 0 q 76 553 119 278 l 47 1043 q 78 1092 46 1075 q 104 1101 99 1099 q 143 1111 104 1101 l 196 1099 q 239 1068 221 1090 l 232 919 l 226 725 q 246 438 222 579 q 323 232 267 311 q 488 151 379 153 q 632 199 576 150 q 726 326 667 229 q 818 711 818 476 q 796 944 818 833 q 774 1036 786 993 l 792 1071 q 835 1088 803 1085 l 881 1092 q 928 1081 917 1092 l 950 1058 m 686 1346 q 642 1269 686 1310 q 563 1229 599 1229 q 306 1556 306 1360 q 379 1651 306 1651 q 468 1565 410 1651 q 524 1475 506 1511 q 631 1415 554 1435 q 686 1346 686 1400 z "},"Ú":{"ha":1035,"x_min":46,"x_max":988,"o":"m 950 1058 l 988 844 l 976 492 q 839 151 949 283 q 517 0 714 0 q 185 169 288 0 q 76 553 119 278 l 47 1043 q 78 1092 46 1075 q 104 1101 99 1099 q 143 1111 104 1101 l 196 1099 q 239 1068 221 1090 l 232 919 l 226 725 q 246 438 222 579 q 323 232 267 311 q 488 151 379 153 q 632 199 576 150 q 726 326 667 229 q 818 711 818 476 q 796 944 818 833 q 774 1036 786 993 l 792 1071 q 835 1088 803 1085 l 881 1092 q 928 1081 917 1092 l 950 1058 m 626 1588 q 522 1342 628 1482 q 328 1203 417 1203 q 281 1225 296 1203 q 265 1263 268 1243 q 307 1328 265 1276 q 415 1471 364 1399 q 493 1611 417 1474 q 554 1660 519 1658 q 611 1642 596 1661 q 626 1588 626 1622 z "},"Û":{"ha":1035,"x_min":46,"x_max":988,"o":"m 950 1058 l 988 844 l 976 492 q 839 151 949 283 q 517 0 714 0 q 185 169 288 0 q 76 553 119 278 l 47 1043 q 78 1092 46 1075 q 104 1101 99 1099 q 143 1111 104 1101 l 196 1099 q 239 1068 221 1090 l 232 919 l 226 725 q 246 438 222 579 q 323 232 267 311 q 488 151 379 153 q 632 199 576 150 q 726 326 667 229 q 818 711 818 476 q 796 944 818 833 q 774 1036 786 993 l 792 1071 q 835 1088 803 1085 l 881 1092 q 928 1081 917 1092 l 950 1058 m 840 1365 q 817 1309 840 1332 q 760 1285 794 1286 q 644 1333 722 1283 q 472 1440 621 1349 q 374 1338 433 1440 q 274 1233 314 1235 q 193 1314 196 1232 q 283 1479 192 1349 q 464 1624 383 1622 q 667 1504 496 1624 q 840 1365 838 1385 z "},"Ü":{"ha":1035,"x_min":46,"x_max":988,"o":"m 950 1058 l 988 844 l 976 492 q 839 151 949 283 q 517 0 714 0 q 185 169 288 0 q 76 553 119 278 l 47 1043 q 78 1092 46 1075 q 104 1101 99 1099 q 143 1111 104 1101 l 196 1099 q 239 1068 221 1090 l 232 919 l 226 725 q 246 438 222 579 q 323 232 267 311 q 488 151 379 153 q 632 199 576 150 q 726 326 667 229 q 818 711 818 476 q 796 944 818 833 q 774 1036 786 993 l 792 1071 q 835 1088 803 1085 l 881 1092 q 928 1081 917 1092 l 950 1058 m 300 1414 q 349 1398 335 1414 q 364 1358 364 1382 q 343 1307 364 1331 q 294 1283 322 1283 q 249 1300 264 1283 q 231 1347 231 1326 q 247 1402 232 1386 q 300 1414 261 1418 m 629 1428 q 690 1364 690 1428 q 667 1322 690 1340 q 621 1303 651 1311 q 574 1322 593 1303 q 556 1376 556 1340 q 578 1424 556 1406 q 617 1432 589 1426 q 629 1428 625 1432 z "},"Ý":{"ha":975,"x_min":39,"x_max":958,"o":"m 679 1546 q 585 1322 681 1449 q 407 1196 489 1196 q 364 1217 381 1196 q 350 1250 353 1236 q 389 1310 350 1261 q 488 1439 415 1342 q 557 1567 489 1442 q 613 1611 581 1610 q 679 1546 678 1613 m 297 1099 q 336 1046 322 1082 q 347 965 346 1007 q 339 872 349 936 l 331 815 q 353 665 331 744 q 425 579 375 585 l 486 572 q 614 683 551 572 l 736 903 q 918 1019 815 1019 q 957 949 954 1004 q 939 854 958 928 l 921 783 q 856 432 921 635 q 692 110 793 239 q 393 -62 558 -61 q 56 11 81 -65 q 39 83 39 63 q 68 111 39 110 q 146 94 74 111 l 235 74 q 308 69 264 69 q 688 339 556 69 q 746 521 739 443 l 760 667 l 667 518 q 518 447 613 447 q 346 486 411 447 q 232 621 281 525 q 165 871 165 750 l 165 953 q 167 1040 165 1032 q 217 1104 175 1086 l 297 1099 z "},"à":{"ha":975,"x_min":44,"x_max":931,"o":"m 515 1111 q 703 921 618 1113 q 824 585 797 708 l 931 89 l 921 53 q 901 18 914 29 q 875 3 889 7 l 851 0 q 818 3 828 0 l 790 11 l 790 75 l 792 136 q 767 276 794 232 q 653 321 739 321 q 351 295 411 322 q 258 179 290 268 q 139 18 225 90 l 111 10 l 81 7 q 49 21 58 7 q 44 54 44 33 q 53 136 44 96 q 74 215 64 189 q 190 617 107 303 q 328 1001 258 872 q 515 1111 386 1110 m 344 526 l 401 535 l 436 538 l 528 531 q 593 543 551 529 q 688 596 629 556 q 622 813 675 685 q 544 938 571 936 l 526 939 l 517 939 q 408 771 428 939 q 344 526 389 603 m 668 1328 q 628 1258 668 1294 q 556 1222 588 1222 q 322 1518 322 1340 q 389 1606 322 1606 q 471 1528 417 1606 q 521 1444 504 1478 q 618 1390 549 1408 q 668 1328 668 1376 z "},"á":{"ha":975,"x_min":44,"x_max":931,"o":"m 515 1111 q 703 921 618 1113 q 824 585 797 708 l 931 89 l 921 53 q 901 18 914 29 q 875 3 889 7 l 851 0 q 818 3 828 0 l 790 11 l 790 75 l 792 136 q 767 276 794 232 q 653 321 739 321 q 351 295 411 322 q 258 179 290 268 q 139 18 225 90 l 111 10 l 81 7 q 49 21 58 7 q 44 54 44 33 q 53 136 44 96 q 74 215 64 189 q 190 617 107 303 q 328 1001 258 872 q 515 1111 386 1110 m 344 526 l 401 535 l 436 538 l 528 531 q 593 543 551 529 q 688 596 629 556 q 622 813 675 685 q 544 938 571 936 l 526 939 l 517 939 q 408 771 428 939 q 344 526 389 603 m 610 1546 q 515 1322 611 1449 q 338 1196 419 1196 q 294 1217 311 1196 q 281 1250 283 1236 q 319 1310 281 1261 q 418 1439 346 1342 q 488 1567 419 1442 q 543 1611 511 1610 q 610 1546 608 1613 z "},"â":{"ha":975,"x_min":44,"x_max":931,"o":"m 515 1111 q 703 921 618 1113 q 824 585 797 708 l 931 89 l 921 53 q 901 18 914 29 q 875 3 889 7 l 851 0 q 818 3 828 0 l 790 11 l 790 75 l 792 136 q 767 276 794 232 q 653 321 739 321 q 351 295 411 322 q 258 179 290 268 q 139 18 225 90 l 111 10 l 81 7 q 49 21 58 7 q 44 54 44 33 q 53 136 44 96 q 74 215 64 189 q 190 617 107 303 q 328 1001 258 872 q 515 1111 386 1110 m 344 526 l 401 535 l 436 538 l 528 531 q 593 543 551 529 q 688 596 629 556 q 622 813 675 685 q 544 938 571 936 l 526 939 l 517 939 q 408 771 428 939 q 344 526 389 603 m 810 1311 q 789 1260 810 1281 q 736 1238 768 1239 q 631 1282 703 1236 l 475 1379 q 385 1285 443 1379 q 294 1190 326 1192 q 221 1264 224 1189 q 303 1414 219 1296 q 467 1546 394 1544 q 651 1438 494 1546 q 810 1311 807 1331 z "},"ã":{"ha":975,"x_min":44,"x_max":931,"o":"m 842 1344 q 792 1274 842 1319 q 621 1211 724 1211 q 506 1240 549 1211 q 446 1294 476 1267 q 371 1322 415 1322 q 315 1278 332 1322 q 281 1233 297 1233 q 233 1253 253 1233 q 213 1310 213 1274 q 238 1393 213 1350 q 361 1460 278 1460 q 503 1404 440 1460 q 615 1349 567 1349 q 713 1379 658 1349 q 775 1410 767 1410 q 818 1390 794 1410 q 842 1344 842 1369 m 931 89 l 921 53 q 901 18 914 29 q 875 3 889 7 l 851 0 q 818 3 828 0 l 790 11 l 790 75 l 792 136 q 767 276 794 232 q 653 321 739 321 q 351 295 411 322 q 258 179 290 268 q 139 18 225 90 l 111 10 l 81 7 q 49 21 58 7 q 44 54 44 33 q 53 136 44 96 q 74 215 64 189 q 190 617 107 303 q 328 1001 258 872 q 515 1111 386 1110 q 703 921 618 1113 q 824 585 797 708 l 931 89 m 688 596 q 622 813 675 685 q 544 938 571 936 l 526 939 l 517 939 q 408 771 428 939 q 344 526 389 603 l 401 535 l 436 538 l 528 531 q 593 543 551 529 q 688 596 629 556 z "},"ä":{"ha":975,"x_min":44,"x_max":931,"o":"m 515 1111 q 703 921 618 1113 q 824 585 797 708 l 931 89 l 921 53 q 901 18 914 29 q 875 3 889 7 l 851 0 q 818 3 828 0 l 790 11 l 790 75 l 792 136 q 767 276 794 232 q 653 321 739 321 q 351 295 411 322 q 258 179 290 268 q 139 18 225 90 l 111 10 l 81 7 q 49 21 58 7 q 44 54 44 33 q 53 136 44 96 q 74 215 64 189 q 190 617 107 303 q 328 1001 258 872 q 515 1111 386 1110 m 344 526 l 401 535 l 436 538 l 528 531 q 593 543 551 529 q 688 596 629 556 q 622 813 675 685 q 544 938 571 936 l 526 939 l 517 939 q 408 771 428 939 q 344 526 389 603 m 329 1336 q 371 1322 360 1335 q 382 1289 382 1310 q 357 1240 382 1256 q 324 1228 340 1228 q 286 1242 300 1228 q 272 1281 271 1265 q 284 1325 272 1313 q 329 1336 296 1338 m 600 1347 q 642 1334 632 1347 q 651 1294 651 1321 q 632 1260 651 1275 q 594 1244 619 1250 q 540 1304 540 1244 q 558 1343 540 1329 q 590 1350 560 1344 q 600 1347 599 1350 z "},"å":{"ha":975,"x_min":44,"x_max":931,"o":"m 647 1351 q 578 1231 647 1285 q 465 1183 517 1183 q 403 1222 425 1183 q 383 1306 383 1257 q 415 1438 383 1401 q 521 1474 447 1474 q 647 1351 647 1474 m 931 89 l 921 53 q 901 18 914 29 q 875 3 889 7 l 851 0 q 818 3 828 0 l 790 11 l 790 75 l 792 136 q 767 276 794 232 q 653 321 739 321 q 351 295 411 322 q 258 179 290 268 q 139 18 225 90 l 111 10 l 81 7 q 49 21 58 7 q 44 54 44 33 q 53 136 44 96 q 74 215 64 189 q 190 617 107 303 q 328 1001 258 872 q 515 1111 386 1110 q 703 921 618 1113 q 824 585 797 708 l 931 89 m 546 1353 q 534 1370 546 1361 q 514 1379 522 1379 q 487 1357 500 1379 q 474 1322 474 1335 q 501 1303 474 1315 q 546 1353 546 1347 m 688 596 q 622 813 675 685 q 544 938 571 936 l 526 939 l 517 939 q 408 771 428 939 q 344 526 389 603 l 401 535 l 436 538 l 528 531 q 593 543 551 529 q 688 596 629 556 z "},"ç":{"ha":989,"x_min":40,"x_max":942,"o":"m 942 100 q 851 10 942 26 q 668 10 800 1 q 528 4 554 18 q 663 -36 654 -32 q 731 -142 731 -68 q 656 -274 731 -226 q 489 -317 589 -317 q 410 -269 410 -317 q 431 -200 410 -214 q 496 -191 440 -196 q 599 -161 551 -186 q 531 -132 585 -137 q 443 -118 457 -124 q 394 -51 399 -103 q 393 -15 393 -32 q 397 31 393 11 q 400 51 400 51 q 376 68 400 57 q 268 129 329 90 q 40 589 40 276 q 187 963 40 801 q 535 1125 333 1125 q 732 1071 622 1125 q 896 938 847 1014 l 896 899 q 749 932 838 917 q 642 944 669 944 q 345 910 440 944 q 217 794 250 876 q 190 581 190 728 q 275 329 190 406 q 496 232 331 281 q 783 158 650 188 q 913 131 911 131 q 942 100 942 122 z "},"è":{"ha":1118,"x_min":51,"x_max":1090,"o":"m 704 1125 q 868 1042 865 1126 l 833 967 q 568 903 711 919 q 465 840 493 894 q 447 718 444 799 q 454 579 454 497 q 826 661 746 660 q 897 610 897 663 q 875 528 897 585 q 619 458 747 493 q 429 344 431 404 q 457 213 428 264 q 567 150 492 150 q 758 172 632 150 q 946 194 883 193 q 1081 117 1076 197 l 1086 107 q 1090 90 1090 103 q 1079 68 1090 79 q 1014 43 1064 53 l 814 6 q 635 -14 781 0 l 594 -14 q 436 -8 597 -14 q 343 10 365 -6 q 325 26 333 17 q 310 44 317 36 l 288 81 l 286 296 q 260 401 286 400 l 225 390 q 174 381 204 383 q 51 425 111 381 l 51 528 q 80 557 79 535 q 263 581 81 579 q 254 739 263 607 l 246 871 q 335 1065 238 999 q 554 1119 396 1108 q 704 1125 615 1124 m 696 1328 q 656 1258 696 1294 q 583 1222 615 1222 q 350 1518 350 1340 q 417 1606 350 1606 q 499 1528 444 1606 q 549 1444 532 1478 q 646 1390 576 1408 q 696 1328 696 1376 z "},"é":{"ha":1118,"x_min":51,"x_max":1090,"o":"m 704 1125 q 868 1042 865 1126 l 833 967 q 568 903 711 919 q 465 840 493 894 q 447 718 444 799 q 454 579 454 497 q 826 661 746 660 q 897 610 897 663 q 875 528 897 585 q 619 458 747 493 q 429 344 431 404 q 457 213 428 264 q 567 150 492 150 q 758 172 632 150 q 946 194 883 193 q 1081 117 1076 197 l 1086 107 q 1090 90 1090 103 q 1079 68 1090 79 q 1014 43 1064 53 l 814 6 q 635 -14 781 0 l 594 -14 q 436 -8 597 -14 q 343 10 365 -6 q 325 26 333 17 q 310 44 317 36 l 288 81 l 286 296 q 260 401 286 400 l 225 390 q 174 381 204 383 q 51 425 111 381 l 51 528 q 80 557 79 535 q 263 581 81 579 q 254 739 263 607 l 246 871 q 335 1065 238 999 q 554 1119 396 1108 q 704 1125 615 1124 m 651 1546 q 557 1322 653 1449 q 379 1196 461 1196 q 336 1217 353 1196 q 322 1250 325 1236 q 361 1310 322 1261 q 460 1439 388 1342 q 529 1567 461 1442 q 585 1611 553 1610 q 651 1546 650 1613 z "},"ê":{"ha":1118,"x_min":51,"x_max":1090,"o":"m 704 1125 q 868 1042 865 1126 l 833 967 q 568 903 711 919 q 465 840 493 894 q 447 718 444 799 q 454 579 454 497 q 826 661 746 660 q 897 610 897 663 q 875 528 897 585 q 619 458 747 493 q 429 344 431 404 q 457 213 428 264 q 567 150 492 150 q 758 172 632 150 q 946 194 883 193 q 1081 117 1076 197 l 1086 107 q 1090 90 1090 103 q 1079 68 1090 79 q 1014 43 1064 53 l 814 6 q 635 -14 781 0 l 594 -14 q 436 -8 597 -14 q 343 10 365 -6 q 325 26 333 17 q 310 44 317 36 l 288 81 l 286 296 q 260 401 286 400 l 225 390 q 174 381 204 383 q 51 425 111 381 l 51 528 q 80 557 79 535 q 263 581 81 579 q 254 739 263 607 l 246 871 q 335 1065 238 999 q 554 1119 396 1108 q 704 1125 615 1124 m 851 1311 q 831 1260 851 1281 q 778 1238 810 1239 q 672 1282 744 1236 l 517 1379 q 426 1285 485 1379 q 336 1190 368 1192 q 263 1264 265 1189 q 344 1414 261 1296 q 508 1546 436 1544 q 692 1438 536 1546 q 851 1311 849 1331 z "},"ë":{"ha":1118,"x_min":51,"x_max":1090,"o":"m 704 1125 q 868 1042 865 1126 l 833 967 q 568 903 711 919 q 465 840 493 894 q 447 718 444 799 q 454 579 454 497 q 826 661 746 660 q 897 610 897 663 q 875 528 897 585 q 619 458 747 493 q 429 344 431 404 q 457 213 428 264 q 567 150 492 150 q 758 172 632 150 q 946 194 883 193 q 1081 117 1076 197 l 1086 107 q 1090 90 1090 103 q 1079 68 1090 79 q 1014 43 1064 53 l 814 6 q 635 -14 781 0 l 594 -14 q 436 -8 597 -14 q 343 10 365 -6 q 325 26 333 17 q 310 44 317 36 l 288 81 l 286 296 q 260 401 286 400 l 225 390 q 174 381 204 383 q 51 425 111 381 l 51 528 q 80 557 79 535 q 263 581 81 579 q 254 739 263 607 l 246 871 q 335 1065 238 999 q 554 1119 396 1108 q 704 1125 615 1124 m 399 1364 q 440 1350 429 1363 q 451 1317 451 1338 q 426 1268 451 1283 q 393 1256 410 1256 q 356 1269 369 1256 q 342 1308 340 1293 q 353 1353 342 1340 q 399 1364 365 1365 m 669 1375 q 711 1362 701 1375 q 721 1322 721 1349 q 701 1288 721 1303 q 664 1272 689 1278 q 610 1332 610 1272 q 628 1371 610 1357 q 660 1378 629 1372 q 669 1375 668 1378 z "},"ì":{"ha":611,"x_min":28,"x_max":585,"o":"m 413 1111 l 558 1111 q 575 1068 575 1085 q 479 1014 575 1053 q 385 874 379 974 l 388 829 l 394 651 q 397 546 394 615 q 406 400 404 447 q 419 274 406 347 q 438 190 424 251 q 539 167 485 190 q 583 115 582 149 q 550 46 585 99 q 533 19 539 28 q 506 0 522 4 l 450 24 q 394 33 424 31 l 254 25 q 108 97 153 19 q 157 167 108 156 q 269 176 201 176 l 311 176 q 306 357 311 236 q 301 538 301 478 q 279 761 301 575 l 268 854 q 294 961 268 903 l 199 960 l 81 960 q 28 978 28 960 q 31 991 31 986 q 42 1007 32 996 l 65 1047 q 256 1097 131 1094 q 335 1100 315 1099 q 413 1111 386 1103 m 501 1328 q 461 1258 501 1294 q 389 1222 421 1222 q 156 1518 156 1340 q 222 1606 156 1606 q 304 1528 250 1606 q 354 1444 338 1478 q 451 1390 382 1408 q 501 1328 501 1376 z "},"í":{"ha":611,"x_min":28,"x_max":585,"o":"m 413 1111 l 558 1111 q 575 1068 575 1085 q 479 1014 575 1053 q 385 874 379 974 l 388 829 l 394 651 q 397 546 394 615 q 406 400 404 447 q 419 274 406 347 q 438 190 424 251 q 539 167 485 190 q 583 115 582 149 q 550 46 585 99 q 533 19 539 28 q 506 0 522 4 l 450 24 q 394 33 424 31 l 254 25 q 108 97 153 19 q 157 167 108 156 q 269 176 201 176 l 311 176 q 306 357 311 236 q 301 538 301 478 q 279 761 301 575 l 268 854 q 294 961 268 903 l 199 960 l 81 960 q 28 978 28 960 q 31 991 31 986 q 42 1007 32 996 l 65 1047 q 256 1097 131 1094 q 335 1100 315 1099 q 413 1111 386 1103 m 443 1546 q 349 1322 444 1449 q 171 1196 253 1196 q 128 1217 144 1196 q 114 1250 117 1236 q 153 1310 114 1261 q 251 1439 179 1342 q 321 1567 253 1442 q 376 1611 344 1610 q 443 1546 442 1613 z "},"î":{"ha":611,"x_min":28,"x_max":643,"o":"m 413 1111 l 558 1111 q 575 1068 575 1085 q 479 1014 575 1053 q 385 874 379 974 l 388 829 l 394 651 q 397 546 394 615 q 406 400 404 447 q 419 274 406 347 q 438 190 424 251 q 539 167 485 190 q 583 115 582 149 q 550 46 585 99 q 533 19 539 28 q 506 0 522 4 l 450 24 q 394 33 424 31 l 254 25 q 108 97 153 19 q 157 167 108 156 q 269 176 201 176 l 311 176 q 306 357 311 236 q 301 538 301 478 q 279 761 301 575 l 268 854 q 294 961 268 903 l 199 960 l 81 960 q 28 978 28 960 q 31 991 31 986 q 42 1007 32 996 l 65 1047 q 256 1097 131 1094 q 335 1100 315 1099 q 413 1111 386 1103 m 643 1311 q 622 1260 643 1281 q 569 1238 601 1239 q 464 1282 536 1236 l 308 1379 q 218 1285 276 1379 q 128 1190 160 1192 q 54 1264 57 1189 q 136 1414 53 1296 q 300 1546 228 1544 q 484 1438 328 1546 q 643 1311 640 1331 z "},"ï":{"ha":611,"x_min":28,"x_max":585,"o":"m 413 1111 l 558 1111 q 575 1068 575 1085 q 479 1014 575 1053 q 385 874 379 974 l 388 829 l 394 651 q 397 546 394 615 q 406 400 404 447 q 419 274 406 347 q 438 190 424 251 q 539 167 485 190 q 583 115 582 149 q 550 46 585 99 q 533 19 539 28 q 506 0 522 4 l 450 24 q 394 33 424 31 l 254 25 q 108 97 153 19 q 157 167 108 156 q 269 176 201 176 l 311 176 q 306 357 311 236 q 301 538 301 478 q 279 761 301 575 l 268 854 q 294 961 268 903 l 199 960 l 81 960 q 28 978 28 960 q 31 991 31 986 q 42 1007 32 996 l 65 1047 q 256 1097 131 1094 q 335 1100 315 1099 q 413 1111 386 1103 m 163 1336 q 204 1322 193 1335 q 215 1289 215 1310 q 190 1240 215 1256 q 157 1228 174 1228 q 119 1242 133 1228 q 106 1281 104 1265 q 117 1325 106 1313 q 163 1336 129 1338 m 433 1347 q 475 1334 465 1347 q 485 1294 485 1321 q 465 1260 485 1275 q 428 1244 453 1250 q 374 1304 374 1244 q 392 1343 374 1329 q 424 1350 393 1344 q 433 1347 432 1350 z "},"ñ":{"ha":1183,"x_min":53,"x_max":1117,"o":"m 842 1344 q 792 1274 842 1319 q 621 1211 724 1211 q 506 1240 549 1211 q 446 1294 476 1267 q 371 1322 415 1322 q 315 1278 332 1322 q 281 1233 297 1233 q 233 1253 253 1233 q 213 1310 213 1274 q 238 1393 213 1350 q 361 1460 278 1460 q 503 1404 440 1460 q 615 1349 567 1349 q 713 1379 658 1349 q 775 1410 767 1410 q 818 1390 794 1410 q 842 1344 842 1369 m 1117 1006 l 1097 690 q 1076 543 1079 575 q 1068 408 1068 465 q 1026 124 1068 261 q 931 39 1001 40 q 801 89 882 38 l 331 692 q 314 701 325 697 q 275 586 288 701 q 268 447 268 517 q 315 89 268 199 l 306 60 q 292 29 300 42 q 233 0 278 0 q 163 32 199 0 l 129 69 l 67 367 q 53 499 53 433 q 123 796 53 668 q 292 925 193 924 q 507 750 357 926 q 688 518 533 718 q 857 328 832 329 q 868 347 864 328 q 867 476 868 371 l 865 586 l 860 810 q 888 1035 856 953 l 935 1085 q 993 1111 958 1110 q 1064 1076 1032 1113 q 1117 1006 1081 1053 z "},"ò":{"ha":1018,"x_min":46,"x_max":974,"o":"m 528 1111 q 831 922 692 1113 q 972 482 971 731 q 733 129 974 276 q 306 0 524 1 q 97 163 167 -1 q 46 444 46 283 q 160 885 46 693 q 528 1111 294 1110 m 306 444 q 301 433 303 436 q 282 401 300 431 q 264 346 264 371 q 306 260 264 306 l 364 229 q 443 214 389 217 l 510 219 q 654 336 560 224 q 750 593 749 449 q 692 793 751 701 q 519 897 624 897 l 492 894 q 353 757 400 894 q 306 444 308 628 m 668 1328 q 628 1258 668 1294 q 556 1222 588 1222 q 322 1518 322 1340 q 389 1606 322 1606 q 471 1528 417 1606 q 521 1444 504 1478 q 618 1390 549 1408 q 668 1328 668 1376 z "},"ó":{"ha":1018,"x_min":46,"x_max":974,"o":"m 528 1111 q 831 922 692 1113 q 972 482 971 731 q 733 129 974 276 q 306 0 524 1 q 97 163 167 -1 q 46 444 46 283 q 160 885 46 693 q 528 1111 294 1110 m 306 444 q 301 433 303 436 q 282 401 300 431 q 264 346 264 371 q 306 260 264 306 l 364 229 q 443 214 389 217 l 510 219 q 654 336 560 224 q 750 593 749 449 q 692 793 751 701 q 519 897 624 897 l 492 894 q 353 757 400 894 q 306 444 308 628 m 610 1546 q 515 1322 611 1449 q 338 1196 419 1196 q 294 1217 311 1196 q 281 1250 283 1236 q 319 1310 281 1261 q 418 1439 346 1342 q 488 1567 419 1442 q 543 1611 511 1610 q 610 1546 608 1613 z "},"ô":{"ha":1018,"x_min":46,"x_max":974,"o":"m 528 1111 q 831 922 692 1113 q 972 482 971 731 q 733 129 974 276 q 306 0 524 1 q 97 163 167 -1 q 46 444 46 283 q 160 885 46 693 q 528 1111 294 1110 m 306 444 q 301 433 303 436 q 282 401 300 431 q 264 346 264 371 q 306 260 264 306 l 364 229 q 443 214 389 217 l 510 219 q 654 336 560 224 q 750 593 749 449 q 692 793 751 701 q 519 897 624 897 l 492 894 q 353 757 400 894 q 306 444 308 628 m 810 1311 q 789 1260 810 1281 q 736 1238 768 1239 q 631 1282 703 1236 l 475 1379 q 385 1285 443 1379 q 294 1190 326 1192 q 221 1264 224 1189 q 303 1414 219 1296 q 467 1546 394 1544 q 651 1438 494 1546 q 810 1311 807 1331 z "},"õ":{"ha":1018,"x_min":46,"x_max":974,"o":"m 528 1111 q 831 922 692 1113 q 972 482 971 731 q 733 129 974 276 q 306 0 524 1 q 97 163 167 -1 q 46 444 46 283 q 160 885 46 693 q 528 1111 294 1110 m 306 444 q 301 433 303 436 q 282 401 300 431 q 264 346 264 371 q 306 260 264 306 l 364 229 q 443 214 389 217 l 510 219 q 654 336 560 224 q 750 593 749 449 q 692 793 751 701 q 519 897 624 897 l 492 894 q 353 757 400 894 q 306 444 308 628 m 842 1344 q 792 1274 842 1319 q 621 1211 724 1211 q 506 1240 549 1211 q 446 1294 476 1267 q 371 1322 415 1322 q 315 1278 332 1322 q 281 1233 297 1233 q 233 1253 253 1233 q 213 1310 213 1274 q 238 1393 213 1350 q 361 1460 278 1460 q 503 1404 440 1460 q 615 1349 567 1349 q 713 1379 658 1349 q 775 1410 767 1410 q 818 1390 794 1410 q 842 1344 842 1369 z "},"ö":{"ha":1018,"x_min":46,"x_max":974,"o":"m 528 1111 q 831 922 692 1113 q 972 482 971 731 q 733 129 974 276 q 306 0 524 1 q 97 163 167 -1 q 46 444 46 283 q 160 885 46 693 q 528 1111 294 1110 m 306 444 q 301 433 303 436 q 282 401 300 431 q 264 346 264 371 q 306 260 264 306 l 364 229 q 443 214 389 217 l 510 219 q 654 336 560 224 q 750 593 749 449 q 692 793 751 701 q 519 897 624 897 l 492 894 q 353 757 400 894 q 306 444 308 628 m 329 1336 q 371 1322 360 1335 q 382 1289 382 1310 q 357 1240 382 1256 q 324 1228 340 1228 q 286 1242 300 1228 q 272 1281 271 1265 q 284 1325 272 1313 q 329 1336 296 1338 m 600 1347 q 642 1334 632 1347 q 651 1294 651 1321 q 632 1260 651 1275 q 594 1244 619 1250 q 540 1304 540 1244 q 558 1343 540 1329 q 590 1350 560 1344 q 600 1347 599 1350 z "},"ù":{"ha":1035,"x_min":46,"x_max":988,"o":"m 950 1058 l 988 844 l 976 492 q 839 151 949 283 q 517 0 714 0 q 185 169 288 0 q 76 553 119 278 l 47 1043 q 78 1092 46 1075 q 104 1101 99 1099 q 143 1111 104 1101 l 196 1099 q 239 1068 221 1090 l 232 919 l 226 725 q 246 438 222 579 q 323 232 267 311 q 488 151 379 153 q 632 199 576 150 q 726 326 667 229 q 818 711 818 476 q 796 944 818 833 q 774 1036 786 993 l 792 1071 q 835 1088 803 1085 l 881 1092 q 928 1081 917 1092 l 950 1058 m 686 1346 q 642 1269 686 1310 q 563 1229 599 1229 q 306 1556 306 1360 q 379 1651 306 1651 q 468 1565 410 1651 q 524 1475 506 1511 q 631 1415 554 1435 q 686 1346 686 1400 z "},"ú":{"ha":1035,"x_min":46,"x_max":988,"o":"m 950 1058 l 988 844 l 976 492 q 839 151 949 283 q 517 0 714 0 q 185 169 288 0 q 76 553 119 278 l 47 1043 q 78 1092 46 1075 q 104 1101 99 1099 q 143 1111 104 1101 l 196 1099 q 239 1068 221 1090 l 232 919 l 226 725 q 246 438 222 579 q 323 232 267 311 q 488 151 379 153 q 632 199 576 150 q 726 326 667 229 q 818 711 818 476 q 796 944 818 833 q 774 1036 786 993 l 792 1071 q 835 1088 803 1085 l 881 1092 q 928 1081 917 1092 l 950 1058 m 626 1588 q 522 1342 628 1482 q 328 1203 417 1203 q 281 1225 296 1203 q 265 1263 268 1243 q 307 1328 265 1276 q 415 1471 364 1399 q 493 1611 417 1474 q 554 1660 519 1658 q 611 1642 596 1661 q 626 1588 626 1622 z "},"û":{"ha":1035,"x_min":46,"x_max":988,"o":"m 950 1058 l 988 844 l 976 492 q 839 151 949 283 q 517 0 714 0 q 185 169 288 0 q 76 553 119 278 l 47 1043 q 78 1092 46 1075 q 104 1101 99 1099 q 143 1111 104 1101 l 196 1099 q 239 1068 221 1090 l 232 919 l 226 725 q 246 438 222 579 q 323 232 267 311 q 488 151 379 153 q 632 199 576 150 q 726 326 667 229 q 818 711 818 476 q 796 944 818 833 q 774 1036 786 993 l 792 1071 q 835 1088 803 1085 l 881 1092 q 928 1081 917 1092 l 950 1058 m 840 1365 q 817 1309 840 1332 q 760 1285 794 1286 q 644 1333 722 1283 q 472 1440 621 1349 q 374 1338 433 1440 q 274 1233 314 1235 q 193 1314 196 1232 q 283 1479 192 1349 q 464 1624 383 1622 q 667 1504 496 1624 q 840 1365 838 1385 z "},"ü":{"ha":1035,"x_min":46,"x_max":988,"o":"m 950 1058 l 988 844 l 976 492 q 839 151 949 283 q 517 0 714 0 q 185 169 288 0 q 76 553 119 278 l 47 1043 q 78 1092 46 1075 q 104 1101 99 1099 q 143 1111 104 1101 l 196 1099 q 239 1068 221 1090 l 232 919 l 226 725 q 246 438 222 579 q 323 232 267 311 q 488 151 379 153 q 632 199 576 150 q 726 326 667 229 q 818 711 818 476 q 796 944 818 833 q 774 1036 786 993 l 792 1071 q 835 1088 803 1085 l 881 1092 q 928 1081 917 1092 l 950 1058 m 300 1414 q 349 1398 335 1414 q 364 1358 364 1382 q 343 1307 364 1331 q 294 1283 322 1283 q 249 1300 264 1283 q 231 1347 231 1326 q 247 1402 232 1386 q 300 1414 261 1418 m 629 1428 q 690 1364 690 1428 q 667 1322 690 1340 q 621 1303 651 1311 q 574 1322 593 1303 q 556 1376 556 1340 q 578 1424 556 1406 q 617 1432 589 1426 q 629 1428 625 1432 z "},"ý":{"ha":1017,"x_min":39,"x_max":958,"o":"m 679 1546 q 585 1322 681 1449 q 407 1196 489 1196 q 364 1217 381 1196 q 350 1250 353 1236 q 389 1310 350 1261 q 488 1439 415 1342 q 557 1567 489 1442 q 613 1611 581 1610 q 679 1546 678 1613 m 297 1099 q 336 1046 322 1082 q 347 965 346 1007 q 339 872 349 936 l 331 815 q 353 665 331 744 q 425 579 375 585 l 486 572 q 614 683 551 572 l 736 903 q 918 1019 815 1019 q 957 949 954 1004 q 939 854 958 928 l 921 783 q 856 432 921 635 q 692 110 793 239 q 393 -62 558 -61 q 56 11 81 -65 q 39 83 39 63 q 68 111 39 110 q 146 94 74 111 l 235 74 q 308 69 264 69 q 688 339 556 69 q 746 521 739 443 l 760 667 l 667 518 q 518 447 613 447 q 346 486 411 447 q 232 621 281 525 q 165 871 165 750 l 165 953 q 167 1040 165 1032 q 217 1104 175 1086 l 297 1099 z "},"ÿ":{"ha":1010,"x_min":39,"x_max":958,"o":"m 297 1099 q 336 1046 322 1082 q 347 965 346 1007 q 339 872 349 936 l 331 815 q 353 665 331 744 q 425 579 375 585 l 486 572 q 614 683 551 572 l 736 903 q 918 1019 815 1019 q 957 949 954 1004 q 939 854 958 928 l 921 783 q 856 432 921 635 q 692 110 793 239 q 393 -62 558 -61 q 56 11 81 -65 q 39 83 39 63 q 68 111 39 110 q 146 94 74 111 l 235 74 q 308 69 264 69 q 688 339 556 69 q 746 521 739 443 l 760 667 l 667 518 q 518 447 613 447 q 346 486 411 447 q 232 621 281 525 q 165 871 165 750 l 165 953 q 167 1040 165 1032 q 217 1104 175 1086 l 297 1099 m 369 1344 q 419 1328 404 1344 q 433 1289 433 1313 q 413 1238 433 1261 q 364 1214 392 1214 q 318 1231 333 1214 q 300 1278 300 1257 q 316 1333 301 1317 q 369 1344 331 1349 m 699 1358 q 760 1294 760 1358 q 736 1253 760 1271 q 690 1233 721 1242 q 644 1252 663 1233 q 625 1307 625 1271 q 647 1354 625 1336 q 686 1363 658 1357 q 699 1358 694 1363 z "},"Š":{"ha":813,"x_min":38,"x_max":776,"o":"m 72 1429 q 93 1481 72 1460 q 146 1503 114 1501 q 251 1458 179 1504 l 407 1361 q 497 1455 439 1361 q 588 1550 556 1549 q 661 1476 658 1551 q 579 1326 663 1444 q 415 1194 488 1196 q 231 1302 388 1194 q 72 1429 75 1410 m 497 1111 q 638 1093 575 1113 q 729 1004 729 1065 q 706 938 729 974 q 673 941 692 939 q 650 943 654 943 q 628 943 644 943 q 592 944 607 944 q 401 911 486 946 q 324 799 325 879 q 481 674 324 764 q 690 547 674 563 q 775 313 774 475 q 632 79 776 171 q 358 0 507 0 q 142 47 247 0 q 38 179 38 94 l 38 246 q 60 283 38 283 q 488 188 251 188 q 557 249 540 199 q 567 347 567 279 q 450 507 567 451 l 233 610 q 115 799 117 681 q 258 1006 114 894 q 497 1111 396 1110 z "},"š":{"ha":813,"x_min":38,"x_max":776,"o":"m 72 1429 q 93 1481 72 1460 q 146 1503 114 1501 q 251 1458 179 1504 l 407 1361 q 497 1455 439 1361 q 588 1550 556 1549 q 661 1476 658 1551 q 579 1326 663 1444 q 415 1194 488 1196 q 231 1302 388 1194 q 72 1429 75 1410 m 497 1111 q 638 1093 575 1113 q 729 1004 729 1065 q 706 938 729 974 q 673 941 692 939 q 650 943 654 943 q 628 943 644 943 q 592 944 607 944 q 401 911 486 946 q 324 799 325 879 q 481 674 324 764 q 690 547 674 563 q 775 313 774 475 q 632 79 776 171 q 358 0 507 0 q 142 47 247 0 q 38 179 38 94 l 38 246 q 60 283 38 283 q 488 188 251 188 q 557 249 540 199 q 567 347 567 279 q 450 507 567 451 l 233 610 q 115 799 117 681 q 258 1006 114 894 q 497 1111 396 1110 z "},"Ÿ":{"ha":1010,"x_min":39,"x_max":958,"o":"m 297 1099 q 336 1046 322 1082 q 347 965 346 1007 q 339 872 349 936 l 331 815 q 353 665 331 744 q 425 579 375 585 l 486 572 q 614 683 551 572 l 736 903 q 918 1019 815 1019 q 957 949 954 1004 q 939 854 958 928 l 921 783 q 856 432 921 635 q 692 110 793 239 q 393 -62 558 -61 q 56 11 81 -65 q 39 83 39 63 q 68 111 39 110 q 146 94 74 111 l 235 74 q 308 69 264 69 q 688 339 556 69 q 746 521 739 443 l 760 667 l 667 518 q 518 447 613 447 q 346 486 411 447 q 232 621 281 525 q 165 871 165 750 l 165 953 q 167 1040 165 1032 q 217 1104 175 1086 l 297 1099 m 369 1344 q 419 1328 404 1344 q 433 1289 433 1313 q 413 1238 433 1261 q 364 1214 392 1214 q 318 1231 333 1214 q 300 1278 300 1257 q 316 1333 301 1317 q 369 1344 331 1349 m 699 1358 q 760 1294 760 1358 q 736 1253 760 1271 q 690 1233 721 1242 q 644 1252 663 1233 q 625 1307 625 1271 q 647 1354 625 1336 q 686 1363 658 1357 q 699 1358 694 1363 z "},"ƒ":{"ha":592,"x_min":-107,"x_max":561,"o":"m 310 879 q 278 844 310 868 q 199 815 239 815 q 154 882 164 815 q 111 965 142 954 q 15 1049 15 999 q 19 1079 15 1060 q 24 1107 24 1099 q -24 1181 24 1131 q -94 1229 -71 1231 q -86 1258 -86 1249 q -93 1274 -86 1267 q -107 1292 -104 1288 q -87 1276 -97 1283 q -61 1269 -78 1268 q -68 1238 -68 1239 q -39 1229 -68 1229 q -46 1210 -39 1228 q -6 1178 -46 1207 q 35 1106 35 1149 q 31 1080 35 1096 q 28 1056 28 1064 q 72 990 28 1017 q 125 971 106 971 q 147 994 129 971 q 196 1017 165 1017 q 260 968 214 1017 q 310 879 310 914 m 561 632 q 490 535 561 561 q 451 529 481 531 q 433 519 433 529 q 447 498 433 517 q 461 469 461 479 q 433 449 461 449 q 367 460 435 449 q 353 408 358 432 q 390 378 353 406 q 467 313 438 340 q 426 283 446 283 q 415 283 411 283 q 417 279 415 283 q 456 200 433 244 q 443 151 460 179 q 472 126 458 139 q 475 114 475 124 q 456 94 475 94 q 424 104 442 94 q 410 58 410 76 q 410 53 410 56 q 410 49 410 50 q 367 24 410 42 l 367 -25 q 450 -64 450 -25 q 410 -106 450 -106 l 296 -106 q 199 -106 247 -106 q 133 -67 133 -103 q 153 -33 133 -53 l 153 14 q 89 74 89 22 q 90 94 89 81 q 92 114 92 108 q 86 138 92 129 q 68 146 83 142 q 53 163 53 150 q 74 206 53 176 q 94 251 94 235 q 85 264 94 257 q 76 276 76 271 q 204 442 76 294 q 213 443 208 447 q 214 439 214 440 q 211 497 213 457 q 208 565 207 565 q 206 558 207 565 q 211 563 211 560 q 193 572 211 563 q 174 596 175 582 q 186 615 174 608 q 200 625 199 622 q 199 651 199 639 q 299 764 199 764 q 561 632 561 764 m 203 1004 q 157 976 189 1000 q 182 983 181 982 q 203 1004 192 988 m 288 889 q 263 935 288 896 q 219 988 238 975 q 157 954 207 961 q 186 832 158 942 l 214 832 q 256 849 235 840 q 288 889 288 863 m 547 629 q 324 756 547 756 q 239 733 261 756 q 217 658 217 710 q 219 601 217 638 q 196 607 213 604 q 193 599 196 604 q 189 592 190 594 q 224 575 199 579 q 226 446 224 521 q 244 421 222 425 q 290 414 267 417 l 343 413 q 345 428 343 413 q 347 454 347 443 l 329 454 q 306 440 315 443 l 306 478 q 447 460 364 471 l 447 478 q 417 521 418 521 q 357 531 388 526 l 357 544 q 482 550 461 544 q 547 629 547 564 m 451 313 q 371 379 432 328 q 414 289 399 336 q 451 313 426 294 m 386 321 q 340 400 363 383 q 269 404 315 401 q 208 429 233 407 q 92 283 174 388 q 176 256 119 256 q 243 269 213 256 q 233 308 242 281 l 253 308 q 257 299 254 306 q 285 322 276 322 q 310 303 297 322 q 346 328 338 328 q 371 308 353 328 l 386 321 m 467 118 q 433 151 443 135 q 422 133 422 138 q 451 106 422 106 q 467 118 451 106 m 442 185 q 424 242 442 192 q 404 203 414 210 q 361 236 390 215 q 349 215 353 219 q 319 189 340 204 q 276 232 307 207 q 229 186 247 186 q 192 218 221 186 l 192 189 q 254 168 242 183 q 257 146 254 167 q 306 139 283 139 q 386 153 339 139 q 442 185 442 168 m 239 151 q 196 168 231 158 q 172 194 172 174 q 174 214 172 206 q 176 236 176 222 q 143 242 168 236 q 128 163 140 190 q 109 135 121 144 q 97 122 97 126 q 111 114 103 124 q 115 124 113 118 q 119 132 118 129 l 135 132 q 135 103 135 103 q 153 85 136 101 l 163 94 q 158 122 161 100 l 176 122 q 206 89 185 103 q 215 104 210 96 q 192 142 197 128 q 224 142 225 142 q 239 151 231 146 m 410 99 l 410 142 q 304 119 340 119 q 271 124 286 119 q 250 128 256 128 q 224 122 240 128 q 229 100 229 108 q 211 85 229 86 q 176 85 194 85 q 151 72 164 72 q 119 94 133 72 l 101 94 q 108 56 104 75 q 136 29 111 38 q 239 19 167 19 q 290 49 276 19 q 314 89 308 85 q 311 57 311 46 q 344 39 311 39 q 392 44 388 39 q 410 99 401 71 m 357 -25 l 357 14 l 310 18 l 306 8 q 315 -17 310 -6 q 340 -28 319 -28 q 357 -25 349 -28 m 442 -67 q 381 -33 442 -44 q 306 -49 344 -40 q 308 -76 313 -68 q 296 -90 301 -83 l 424 -90 q 442 -67 442 -67 m 125 199 q 96 222 114 206 q 68 161 89 210 q 83 156 90 156 q 125 199 111 156 m 296 -39 q 290 18 290 6 q 229 4 279 13 l 229 -19 q 296 -39 247 -21 m 219 -25 q 215 4 215 -12 q 167 8 185 4 q 161 -14 165 -4 q 173 -30 161 -21 q 190 -39 185 -39 q 219 -25 194 -39 m 289 -68 q 267 -46 289 -54 q 240 -39 250 -39 q 192 -47 226 -39 q 143 -67 151 -57 q 226 -94 169 -94 q 289 -68 289 -94 m 253 681 q 265 682 258 686 q 269 668 274 678 q 254 665 265 658 q 253 681 244 672 m 313 719 q 326 714 321 724 q 326 703 329 707 q 315 700 322 699 q 308 707 310 701 q 313 719 306 717 z "},"ˆ":{"ha":975,"x_min":219,"x_max":810,"o":"m 810 1311 q 789 1260 810 1281 q 736 1238 768 1239 q 631 1282 703 1236 l 475 1379 q 385 1285 443 1379 q 294 1190 326 1192 q 221 1264 224 1189 q 303 1414 219 1296 q 467 1546 394 1544 q 651 1438 494 1546 q 810 1311 807 1331 z "},"˜":{"ha":975,"x_min":213,"x_max":842,"o":"m 842 1344 q 792 1274 842 1319 q 621 1211 724 1211 q 506 1240 549 1211 q 446 1294 476 1267 q 371 1322 415 1322 q 315 1278 332 1322 q 281 1233 297 1233 q 233 1253 253 1233 q 213 1310 213 1274 q 238 1393 213 1350 q 361 1460 278 1460 q 503 1404 440 1460 q 615 1349 567 1349 q 713 1379 658 1349 q 775 1410 767 1410 q 818 1390 794 1410 q 842 1344 842 1369 z "},"‘":{"ha":456,"x_min":100,"x_max":367,"o":"m 367 831 q 360 792 364 804 q 335 779 356 779 q 274 824 289 781 q 231 928 243 910 q 149 1017 218 946 q 100 1104 100 1067 q 116 1133 101 1122 q 149 1144 131 1144 q 285 1001 197 1143 q 367 831 367 869 z "},"’":{"ha":439,"x_min":78,"x_max":354,"o":"m 353 1067 q 259 874 351 1019 q 131 728 167 728 q 78 775 78 728 q 99 823 81 793 q 179 960 117 853 q 314 1122 275 1124 q 353 1067 354 1121 z "},"‚":{"ha":554,"x_min":25,"x_max":533,"o":"m 533 581 q 475 500 533 518 q 396 486 436 493 q 440 432 440 438 q 403 414 440 415 q 321 414 408 414 l 321 407 q 369 334 321 372 q 417 288 417 296 q 386 263 417 283 l 435 157 q 431 138 433 147 q 424 125 431 136 q 447 85 447 104 q 407 61 447 61 q 367 17 406 22 q 328 -17 328 13 q 346 -40 328 -40 q 385 -19 383 -40 q 385 25 385 3 q 396 -21 396 29 q 442 -32 435 -29 q 468 -61 468 -42 q 367 -106 468 -106 q 301 -68 301 -92 q 317 -40 301 -61 l 317 3 q 308 5 314 3 q 300 7 303 7 q 179 -39 185 -25 l 181 -51 q 238 -64 210 -57 q 267 -94 267 -71 q 175 -129 267 -129 q 89 -99 89 -128 q 98 -85 89 -99 q 107 -57 107 -72 q 89 -7 107 -42 q 71 57 71 28 q 76 93 71 74 q 50 119 50 108 q 79 196 79 192 q 69 214 79 200 l 176 375 q 169 435 171 396 q 165 481 167 475 q 160 492 164 488 q 122 526 122 503 q 137 549 122 538 q 151 571 151 561 q 135 638 151 575 q 113 718 119 701 l 44 424 q 53 406 47 413 q 64 393 64 394 q 44 396 54 397 q 57 376 49 390 q 42 378 47 376 q 31 361 33 367 q 25 393 31 382 q 63 532 32 400 q 99 781 99 688 q 200 843 147 843 q 292 714 215 843 q 363 703 303 714 q 475 667 440 685 q 533 581 533 635 m 200 819 l 200 825 l 188 826 q 151 813 169 819 q 128 790 140 801 l 128 782 l 136 782 q 163 792 149 788 q 200 819 171 796 m 271 707 q 243 769 271 731 q 211 806 218 803 q 187 783 197 789 q 160 774 176 778 q 121 761 135 767 q 142 668 125 749 q 169 646 146 646 q 246 674 214 646 q 271 707 271 694 m 518 581 q 439 667 518 642 q 306 700 372 683 l 292 699 q 158 625 265 633 q 165 547 165 592 q 151 542 158 544 q 140 526 140 536 q 154 511 140 513 q 182 508 168 510 q 174 457 174 483 q 253 361 174 361 q 310 385 310 361 q 293 411 310 406 l 292 401 l 276 401 q 271 421 271 418 q 288 442 271 433 q 307 428 297 428 l 424 428 q 403 460 418 444 q 385 483 388 475 q 342 492 365 483 q 310 514 314 501 l 328 515 q 372 501 342 508 q 518 581 518 501 m 397 286 q 353 328 390 300 q 386 278 376 278 q 397 286 385 278 m 432 90 q 410 115 432 108 q 415 76 410 107 q 432 90 432 83 m 350 301 q 317 358 338 325 q 257 340 286 340 q 186 357 225 340 l 86 214 q 150 200 135 200 q 231 224 231 200 q 227 243 231 232 q 224 260 224 254 q 255 274 246 263 q 265 286 264 286 q 304 256 261 286 q 350 301 318 268 m 418 156 q 401 194 418 178 q 379 168 392 168 q 372 171 374 168 q 351 189 367 179 q 315 147 329 147 q 299 159 310 147 q 274 176 289 171 q 233 133 253 133 q 219 143 226 133 q 190 164 213 153 l 190 143 q 219 137 199 139 q 244 131 239 135 q 255 113 249 122 q 289 103 261 103 q 369 122 319 103 q 418 156 418 142 m 451 -64 q 437 -43 451 -51 q 408 -35 422 -35 l 321 -62 l 321 -72 q 385 -89 357 -89 q 451 -64 451 -89 m 396 64 l 396 110 l 379 111 q 303 90 358 96 q 218 76 235 82 q 225 47 225 60 q 197 21 225 21 q 168 36 189 21 q 143 13 157 13 q 125 25 135 13 q 85 64 107 46 q 85 63 85 63 q 83 60 83 61 q 97 10 90 35 q 169 -8 110 -8 q 267 10 249 -8 q 276 69 276 19 l 288 69 q 292 24 299 46 q 311 21 299 22 q 396 64 382 21 m 238 99 l 238 108 q 176 121 221 121 q 169 158 171 140 q 171 168 169 160 q 172 182 172 176 l 133 182 q 133 144 129 165 q 133 117 136 122 q 117 113 125 114 q 92 82 100 107 q 132 82 110 74 l 133 64 q 143 32 128 47 q 171 75 149 49 q 181 54 176 64 q 203 39 186 44 q 207 53 206 43 q 193 81 204 63 l 193 99 q 238 99 193 99 m 118 131 q 114 149 118 133 q 88 138 106 144 q 83 146 86 140 q 78 153 81 151 q 65 117 75 147 q 79 111 76 111 q 93 118 83 111 q 118 131 103 125 m 169 -33 q 165 -26 169 -29 q 140 -26 154 -26 q 122 -25 125 -25 l 122 -60 q 143 -65 136 -65 q 169 -33 169 -65 m 254 -94 q 232 -75 254 -83 q 201 -69 215 -69 q 154 -76 183 -69 q 108 -100 118 -86 q 181 -115 135 -115 q 254 -94 254 -115 m 207 604 q 219 600 215 607 q 217 588 225 593 q 201 593 204 579 q 207 604 199 603 m 264 638 q 277 635 272 643 q 279 624 282 628 q 271 619 278 619 q 261 624 264 619 q 264 638 257 633 z "},"“":{"ha":715,"x_min":96,"x_max":610,"o":"m 610 842 q 587 811 610 824 q 543 797 564 799 q 472 864 528 796 q 410 997 410 940 q 449 1029 410 1025 q 538 947 469 1029 q 610 842 606 864 m 372 775 q 319 728 372 728 q 191 874 283 728 q 97 1067 99 1019 q 136 1122 96 1121 q 271 960 175 1124 q 353 821 307 900 q 372 775 369 793 z "},"”":{"ha":717,"x_min":119,"x_max":567,"o":"m 567 969 q 514 878 567 947 q 372 738 408 739 q 353 746 360 738 q 344 776 347 754 q 422 910 344 804 q 519 1015 500 1015 q 548 999 532 1015 q 567 969 564 983 m 386 1104 q 338 1017 386 1067 q 256 928 268 946 q 213 824 243 910 q 151 779 197 781 q 126 792 131 779 q 119 831 122 804 q 201 1001 119 869 q 338 1144 289 1143 q 370 1133 356 1144 q 386 1104 385 1122 z "},"„":{"ha":775,"x_min":39,"x_max":750,"o":"m 738 1108 q 707 1140 738 1140 q 574 1054 642 1140 q 475 896 543 1015 q 404 810 425 810 q 339 803 358 810 q 319 797 319 797 q 290 803 324 797 q 274 788 285 800 q 329 765 311 786 q 343 743 336 754 q 363 744 354 744 q 426 681 426 744 q 367 624 426 624 q 303 686 303 624 q 313 713 303 701 q 333 736 324 725 q 286 779 300 779 q 239 733 264 779 l 239 721 q 283 704 267 717 l 283 689 l 265 689 q 233 710 254 710 q 214 713 240 710 q 201 707 203 714 q 193 688 197 708 q 201 676 197 683 q 267 658 235 660 l 267 646 l 236 646 q 203 658 226 649 q 178 665 188 665 q 103 644 128 665 q 106 632 106 640 q 286 604 196 618 q 382 553 365 588 q 380 552 382 553 q 376 550 378 551 q 326 576 344 571 l 326 542 q 397 510 381 542 q 410 453 400 504 q 443 421 415 421 q 454 425 440 421 l 454 440 q 439 465 451 444 l 440 472 l 447 474 q 471 431 471 450 q 446 406 471 406 q 384 427 419 406 q 321 449 349 449 q 292 435 303 449 q 271 400 288 431 l 272 378 q 293 406 288 390 q 303 401 296 406 q 300 382 303 401 q 303 354 297 369 q 322 374 314 361 q 339 392 331 386 q 340 376 340 383 q 338 363 340 369 q 336 356 336 356 q 353 338 336 350 q 367 367 360 353 q 383 381 375 381 q 428 358 394 381 q 475 336 461 336 q 513 360 490 336 q 536 410 536 383 q 508 486 536 451 q 456 535 493 506 q 428 565 428 556 q 460 610 428 568 q 492 711 492 653 q 475 771 492 739 q 458 801 458 803 q 598 956 458 828 q 738 1108 738 1083 m 418 685 q 401 722 418 704 q 364 739 385 739 q 327 717 344 739 q 310 685 310 696 q 326 647 310 663 q 367 631 343 631 q 403 647 388 631 q 418 685 418 663 m 394 469 q 369 507 394 488 q 335 526 344 526 q 324 500 332 526 q 311 467 313 468 q 389 450 340 464 q 394 469 394 478 m 206 604 l 167 610 l 169 590 q 176 583 174 589 q 185 576 179 576 q 196 586 192 576 q 206 604 204 601 m 153 614 q 119 621 138 617 l 129 601 q 153 614 143 596 m 293 468 q 253 499 293 481 q 201 517 213 517 q 133 463 158 517 q 140 435 135 435 q 151 451 143 435 q 163 469 160 467 q 161 424 157 447 q 182 418 164 425 q 189 453 185 431 l 201 457 q 199 433 201 447 q 197 417 197 419 q 210 413 197 407 q 228 428 217 415 l 239 446 q 265 438 254 438 q 293 468 293 438 m 342 315 q 325 338 329 335 q 307 340 321 340 q 299 338 304 340 q 292 336 294 336 q 290 326 296 328 q 278 322 283 324 q 274 326 278 324 q 269 332 269 329 q 275 342 269 336 q 285 339 278 342 q 294 339 290 338 q 258 360 283 349 q 254 338 254 335 q 269 307 254 321 q 301 293 285 293 q 342 315 324 293 m 469 269 l 472 288 q 435 292 460 292 q 432 315 432 306 q 432 322 432 318 q 433 326 433 326 q 393 360 433 326 l 379 360 q 346 293 371 317 q 310 276 326 276 q 236 344 246 276 q 161 222 161 265 q 165 203 161 218 q 169 179 168 189 l 160 179 q 147 196 151 193 q 131 196 146 196 q 50 163 76 196 l 50 147 q 67 144 56 147 q 86 153 74 153 q 78 148 86 151 q 71 136 71 144 q 88 122 82 119 q 103 131 93 122 q 119 139 114 139 q 121 140 124 139 q 114 130 119 136 q 106 118 108 124 q 138 104 110 104 q 198 118 157 104 q 239 144 239 132 q 225 174 239 144 q 211 213 211 203 q 261 249 211 249 q 317 207 313 249 q 358 121 321 149 l 358 107 q 330 110 350 107 q 301 113 310 113 q 263 74 263 113 q 274 51 263 67 q 288 71 278 60 q 285 47 286 64 q 308 63 300 46 l 324 63 l 315 50 q 300 33 300 40 q 333 19 300 19 q 398 44 354 19 q 442 85 442 69 q 406 131 442 96 q 371 188 371 167 q 399 210 371 206 q 439 221 433 214 q 428 243 428 243 q 443 235 431 242 q 460 228 456 228 q 463 232 463 228 q 464 240 464 236 q 452 255 464 250 q 440 263 440 260 q 442 274 440 269 q 469 269 463 267 m 371 699 q 357 683 368 692 q 354 692 354 689 q 360 703 354 686 q 366 701 363 703 q 371 699 369 700 m 278 750 q 268 735 278 746 l 265 750 l 278 750 m 157 450 q 149 422 149 447 q 125 460 125 424 q 149 503 125 482 q 200 525 172 525 q 254 511 222 525 q 300 490 299 490 q 314 542 308 506 q 317 581 319 579 q 225 604 272 604 q 207 590 215 604 q 183 567 197 572 q 169 579 178 564 q 156 597 160 594 q 140 590 154 599 q 133 588 136 588 q 119 606 126 588 q 104 624 111 624 q 93 643 93 624 q 140 668 93 667 q 186 678 186 669 q 183 684 186 679 q 179 692 179 689 q 182 701 179 697 q 194 717 185 706 q 226 719 208 715 q 247 767 238 743 q 318 810 274 810 q 330 816 314 810 q 393 822 346 822 q 461 908 408 822 q 571 1067 532 1021 q 707 1153 643 1153 q 750 1110 750 1153 q 613 950 750 1074 q 475 800 475 826 q 487 774 475 799 q 499 715 499 749 q 473 621 499 661 q 447 567 447 581 q 472 539 447 558 q 521 492 506 513 q 546 411 546 456 q 521 347 546 371 q 474 322 507 335 q 443 306 446 313 q 469 297 456 301 q 482 283 482 292 q 477 272 482 281 q 471 263 472 263 q 451 263 463 265 q 467 257 461 263 q 467 231 468 233 q 456 214 464 222 q 440 231 450 224 q 445 226 438 229 q 454 219 453 224 q 424 207 456 213 q 385 198 388 200 q 382 193 382 196 q 418 139 382 182 q 454 82 454 96 q 401 35 454 61 q 340 11 354 11 q 311 18 329 11 q 292 39 289 28 q 303 47 293 42 q 310 54 313 53 q 282 40 303 44 q 283 51 279 42 q 283 61 285 61 q 282 53 282 61 q 279 43 282 44 q 261 56 268 39 q 254 78 254 68 q 288 116 254 107 q 322 136 322 125 q 308 194 322 163 q 258 240 290 240 q 218 208 218 240 q 230 175 218 194 q 242 142 242 156 q 214 113 242 126 q 139 96 182 96 q 96 111 136 96 q 103 122 93 113 q 110 132 113 131 q 103 124 108 133 q 86 113 99 114 q 67 135 78 113 q 78 143 74 139 q 67 139 79 142 q 49 142 56 135 q 39 154 39 154 q 90 197 39 186 q 146 204 118 201 q 153 222 151 208 q 161 257 156 243 q 212 333 182 314 q 265 415 242 353 q 239 428 251 425 q 192 406 225 404 q 193 443 193 440 l 190 411 q 163 413 181 411 q 150 428 157 419 q 157 450 151 433 z "},"†":{"ha":554,"x_min":22,"x_max":531,"o":"m 531 393 q 525 361 525 382 q 514 378 522 367 q 499 376 508 376 q 511 396 503 382 q 492 393 501 397 q 511 424 500 399 l 443 718 q 420 638 436 701 q 404 571 404 575 q 419 549 404 561 q 433 526 433 538 q 396 492 433 503 q 389 458 389 483 q 389 421 389 422 q 379 375 386 400 l 486 214 q 476 196 476 200 q 506 119 476 192 q 479 93 506 108 q 485 57 485 74 q 467 -7 485 28 q 449 -57 449 -42 q 458 -85 449 -72 q 467 -99 467 -99 q 381 -129 467 -128 q 289 -94 289 -129 q 317 -64 289 -71 q 375 -51 346 -57 l 376 -39 q 256 7 371 -25 q 247 5 253 7 q 239 3 242 3 l 239 -40 q 254 -68 254 -61 q 189 -106 254 -92 q 88 -61 88 -106 q 114 -32 88 -42 q 160 -21 121 -29 q 171 25 160 29 q 171 -19 171 3 q 210 -40 172 -40 q 228 -17 228 -40 q 189 17 228 13 q 149 61 150 22 q 108 85 108 61 q 132 125 108 104 q 121 157 131 128 l 169 263 q 139 288 139 283 q 187 334 139 296 q 235 407 235 372 l 235 414 q 153 414 147 414 q 115 432 115 415 q 160 486 115 438 q 81 500 121 493 q 22 581 22 518 q 81 667 22 635 q 193 703 115 685 q 264 714 225 706 q 356 843 340 843 q 457 781 410 843 q 493 532 457 688 q 531 393 524 400 m 428 782 l 428 790 q 404 813 417 801 q 368 826 386 819 l 356 825 l 356 819 q 419 782 379 800 l 428 782 m 435 761 q 396 774 421 767 q 371 782 379 778 q 344 806 358 789 q 313 769 338 803 q 285 707 285 731 q 310 674 285 694 q 386 646 342 646 q 415 668 410 646 q 435 761 431 749 m 415 526 q 406 540 415 536 q 390 547 397 544 q 397 625 390 592 q 264 699 290 633 l 250 700 q 117 667 183 683 q 38 581 38 642 q 183 501 38 501 q 228 515 199 506 l 246 514 q 216 492 242 501 q 171 483 190 483 q 153 460 168 475 q 132 428 138 444 l 249 428 q 268 442 258 428 q 285 421 285 433 q 279 401 285 418 l 264 401 l 263 411 q 246 385 246 406 q 303 361 246 361 q 382 457 382 361 q 374 508 382 483 q 401 511 388 510 q 415 526 415 513 m 469 214 l 369 357 q 299 340 331 340 q 239 358 269 340 q 206 301 225 333 q 251 256 206 301 q 290 286 294 286 q 301 274 292 286 q 332 260 310 263 q 328 243 332 254 q 325 224 325 232 q 406 200 325 200 q 469 214 421 200 m 490 117 q 478 153 488 126 q 474 146 476 151 q 468 138 471 140 q 442 149 460 142 q 438 131 442 144 q 463 118 453 125 q 476 111 472 111 q 490 117 479 111 m 464 82 q 439 113 456 107 q 422 117 431 114 q 422 182 426 135 l 383 182 q 385 168 383 176 q 386 158 386 160 q 379 121 383 139 q 318 108 335 121 l 318 99 q 363 99 363 99 l 363 81 q 349 53 358 75 q 353 39 350 49 q 374 54 369 44 q 385 75 379 64 q 400 58 394 69 q 413 32 407 40 q 422 64 428 47 l 424 82 q 464 82 446 74 m 203 328 q 158 286 165 300 q 169 278 171 278 q 203 328 181 278 m 365 143 l 365 164 q 336 143 343 153 q 322 133 329 133 q 282 176 304 133 q 256 159 267 171 q 240 147 246 147 q 204 189 228 147 q 185 171 189 179 q 176 168 182 168 q 154 194 164 168 q 138 156 138 178 q 187 122 138 142 q 267 103 236 103 q 301 113 294 103 q 311 131 307 122 q 337 137 317 135 q 365 143 357 139 m 472 60 q 472 63 472 61 q 471 64 471 63 q 431 25 449 46 q 413 13 421 13 q 388 36 399 13 q 358 21 367 21 q 331 47 331 21 q 338 76 331 60 q 253 90 321 82 q 176 111 197 96 l 160 110 l 160 64 q 244 21 174 21 q 264 24 257 22 q 268 69 257 46 l 279 69 q 289 10 279 19 q 386 -8 307 -8 q 458 10 446 -8 q 472 60 465 35 m 433 -60 l 433 -25 q 417 -26 431 -25 q 390 -26 401 -26 q 386 -33 386 -29 q 413 -65 386 -65 q 433 -60 419 -65 m 447 -100 q 401 -76 438 -86 q 354 -69 372 -69 q 324 -75 340 -69 q 301 -94 301 -83 q 375 -115 301 -115 q 447 -100 421 -115 m 146 115 q 124 90 124 108 q 140 76 124 83 q 146 115 142 89 m 235 -72 l 235 -62 q 147 -35 225 -58 q 119 -43 133 -35 q 104 -64 104 -51 q 171 -89 104 -89 q 235 -72 199 -89 m 354 593 q 339 588 351 579 q 336 600 331 593 q 349 604 340 607 q 354 593 357 603 m 294 624 q 286 619 293 619 q 276 624 279 619 q 278 635 274 628 q 292 638 283 643 q 294 624 299 633 z "},"‡":{"ha":592,"x_min":22,"x_max":690,"o":"m 690 1292 q 676 1274 688 1288 q 669 1258 669 1267 q 678 1229 669 1249 q 607 1181 654 1231 q 560 1107 560 1131 q 564 1079 560 1099 q 568 1049 568 1060 q 472 965 568 999 q 429 882 442 954 q 385 815 419 815 q 306 844 344 815 q 274 879 274 868 q 324 968 274 914 q 388 1017 369 1017 q 436 994 418 1017 q 458 971 454 971 q 511 990 478 971 q 556 1056 556 1017 q 552 1080 556 1064 q 549 1106 549 1096 q 589 1178 549 1149 q 629 1210 629 1207 q 622 1229 622 1226 q 651 1238 651 1229 q 644 1269 651 1239 q 671 1276 661 1268 q 690 1292 681 1283 m 531 163 q 515 146 531 150 q 497 138 500 142 q 492 114 492 129 q 493 94 492 108 q 494 74 494 81 q 431 14 494 22 l 431 -33 q 450 -67 450 -53 q 385 -106 450 -103 q 288 -106 336 -106 l 174 -106 q 133 -64 133 -106 q 217 -25 133 -25 l 217 24 q 174 49 174 42 q 174 53 174 50 q 174 58 174 56 q 160 104 174 76 q 128 94 142 94 q 108 114 108 94 q 111 126 108 124 q 140 151 125 139 q 128 200 124 179 q 167 279 131 204 q 168 283 168 283 q 157 283 171 283 q 117 313 138 283 q 193 378 146 340 q 231 408 231 406 q 217 460 229 419 q 150 449 149 449 q 122 469 122 449 q 136 498 122 479 q 150 519 150 517 q 132 529 150 529 q 93 535 103 531 q 22 632 22 561 q 285 764 22 764 q 385 651 385 764 q 383 625 385 639 q 397 615 385 622 q 410 596 410 608 q 390 572 408 582 q 372 563 372 563 q 378 558 374 560 q 375 565 376 565 q 372 497 376 565 q 369 439 372 478 q 371 443 369 440 q 379 442 375 447 q 507 276 507 294 q 498 264 507 271 q 489 251 489 257 q 510 206 489 235 q 531 163 531 176 m 426 976 q 381 1004 410 993 q 426 976 394 983 m 426 954 q 364 988 376 961 q 321 935 346 975 q 296 889 296 896 q 328 849 296 863 q 369 832 349 840 l 397 832 q 426 954 408 864 m 394 592 q 392 599 394 594 q 388 607 389 604 q 364 601 379 606 q 367 658 367 638 q 344 733 367 710 q 260 756 322 756 q 36 629 36 756 q 101 550 36 564 q 226 544 122 544 l 226 531 q 167 521 196 526 q 136 478 165 521 l 136 460 q 278 478 200 467 l 278 440 q 254 454 268 443 l 236 454 q 238 428 236 443 q 240 413 240 413 l 293 414 q 339 421 317 417 q 357 446 361 425 q 360 575 358 485 q 394 592 385 579 m 492 283 q 375 429 444 340 q 308 404 347 404 q 243 400 257 406 q 197 321 221 383 l 213 308 q 238 328 231 328 q 274 303 246 328 q 299 322 286 322 q 326 299 307 322 q 331 308 328 300 l 350 308 q 340 269 347 297 q 407 256 371 256 q 492 283 464 256 m 515 161 q 488 222 507 181 q 458 199 479 214 q 500 156 472 156 q 515 161 493 156 m 486 122 q 476 135 486 126 q 456 163 463 144 q 440 242 443 190 q 407 236 415 236 q 409 214 407 222 q 411 194 411 206 q 388 168 411 174 q 344 151 353 158 q 360 142 353 146 q 392 142 358 142 q 368 104 386 128 q 378 89 368 104 q 407 122 399 103 l 425 122 q 421 94 425 114 l 431 85 q 449 103 447 101 q 449 132 449 103 l 464 132 q 468 124 465 129 q 472 114 471 118 q 486 122 481 124 m 213 379 q 132 313 189 364 q 169 289 144 306 q 213 379 185 336 m 392 189 l 392 218 q 354 186 363 186 q 307 232 336 186 q 264 189 296 226 q 222 236 236 208 q 179 203 211 229 q 160 242 169 210 q 142 185 142 192 q 197 153 142 168 q 278 139 244 139 q 326 146 300 139 q 331 168 329 167 q 392 189 342 183 m 482 94 l 464 94 q 432 72 450 72 q 407 85 411 72 q 372 85 389 85 q 354 100 354 86 q 360 122 354 108 q 333 128 343 128 q 313 124 328 128 q 279 119 297 119 q 174 142 243 119 l 174 99 q 192 44 183 71 q 239 39 196 39 q 272 57 272 39 q 269 89 272 46 q 293 49 275 85 q 344 19 307 19 q 447 29 417 19 q 478 57 472 38 q 482 94 479 75 m 422 -14 q 417 8 421 -10 q 368 4 399 4 q 364 -25 368 -12 q 393 -39 389 -39 q 410 -30 399 -39 q 422 -14 422 -21 m 354 -19 l 354 4 q 293 18 347 4 q 288 -39 293 6 q 354 -19 311 -26 m 440 -67 q 392 -47 432 -57 q 343 -39 357 -39 q 317 -46 333 -39 q 294 -68 294 -54 q 357 -94 294 -94 q 440 -67 414 -94 m 161 133 q 150 151 161 138 q 117 118 140 135 q 132 106 132 106 q 161 133 161 106 m 278 8 l 274 18 l 226 14 l 226 -25 q 243 -28 235 -28 q 269 -17 264 -28 q 278 8 274 -6 m 288 -90 q 275 -76 282 -83 q 278 -49 271 -68 q 203 -33 232 -39 q 142 -67 142 -44 q 160 -90 142 -67 l 288 -90 m 331 681 q 331 667 339 672 q 318 664 324 661 q 313 674 313 667 q 318 682 313 679 q 331 681 325 686 m 275 707 q 268 700 274 701 q 258 703 261 699 q 257 714 254 707 q 271 719 263 724 q 275 707 276 717 z "},"•":{"ha":878,"x_min":69,"x_max":826,"o":"m 826 469 q 781 411 826 458 q 664 318 726 354 q 503 269 581 269 q 431 307 447 269 q 417 378 426 314 q 382 425 410 419 q 347 419 374 426 q 288 410 315 410 l 86 410 q 76 417 82 413 q 69 439 69 422 q 125 492 69 492 q 188 484 144 492 q 251 476 232 476 q 369 493 339 476 q 396 544 396 507 q 410 600 396 574 q 453 632 426 632 q 493 611 456 632 q 656 560 542 585 q 764 532 740 542 q 826 469 826 508 z "},"…":{"ha":939,"x_min":31,"x_max":890,"o":"m 890 500 q 864 472 890 472 q 842 476 854 472 q 843 443 842 460 q 825 425 842 425 q 800 443 826 425 q 725 476 769 464 q 565 494 660 494 q 538 483 543 494 q 532 418 532 472 q 574 319 532 350 q 651 282 611 301 q 692 217 692 263 q 683 189 692 210 q 672 157 674 161 q 711 164 688 157 q 783 119 783 147 q 735 81 783 106 q 676 57 686 57 q 597 74 663 57 q 519 108 519 93 q 569 163 519 133 q 618 211 618 193 q 584 239 618 222 q 518 256 550 256 q 504 253 518 256 q 475 251 490 251 q 478 228 475 243 q 482 203 482 213 q 465 157 482 179 q 438 135 447 135 q 306 89 381 117 q 353 68 329 79 q 367 47 367 61 q 326 11 367 29 q 250 -7 286 -7 q 122 71 122 24 q 244 147 146 147 q 322 160 263 147 q 397 189 397 174 q 347 242 397 224 q 297 304 297 260 q 350 351 297 360 q 350 390 354 376 q 344 413 344 410 q 354 457 344 431 q 374 510 372 503 l 278 510 q 185 493 247 507 q 201 465 201 472 q 178 438 201 438 q 163 443 174 438 q 149 449 151 449 q 141 437 147 449 q 111 425 135 425 q 90 446 90 425 q 96 468 90 456 q 39 468 96 468 q 36 488 39 475 q 61 514 36 506 q 88 525 86 522 q 83 542 88 525 q 79 569 79 558 q 108 603 79 603 q 126 578 122 603 q 133 553 131 553 q 213 582 150 564 q 328 590 275 590 q 392 586 361 590 q 414 585 413 585 q 429 640 429 594 q 326 763 429 715 q 133 832 231 797 q 31 929 31 872 q 89 978 31 978 q 310 878 158 978 q 468 779 463 779 q 486 800 486 779 q 363 951 486 840 q 240 1097 240 1063 q 257 1142 240 1124 q 293 1160 274 1160 q 443 1068 369 1160 q 560 872 488 1011 q 592 797 582 828 q 600 775 597 776 q 631 774 615 774 q 651 739 656 769 q 654 719 650 732 q 658 701 658 707 q 653 685 658 693 q 647 676 647 678 q 657 668 647 675 q 667 650 667 661 q 651 633 668 635 q 629 632 640 632 q 624 631 625 631 q 674 636 658 639 q 708 620 686 633 q 729 600 731 607 q 710 579 726 579 q 689 583 704 579 q 664 586 674 586 q 651 585 657 586 q 642 575 646 579 q 611 565 629 565 q 588 582 601 565 q 556 561 578 578 l 757 536 q 781 586 764 586 q 810 558 789 586 q 846 582 833 582 q 867 563 867 582 q 854 529 867 549 q 890 500 890 511 m 649 694 q 624 690 628 690 l 624 710 l 640 710 q 611 731 619 731 q 603 727 608 731 q 596 724 599 724 q 603 692 599 718 q 628 683 604 683 q 649 694 640 683 m 590 692 q 577 717 590 703 q 547 731 564 731 q 521 717 532 731 q 510 689 510 703 q 522 664 510 678 q 551 650 535 650 q 578 665 565 650 q 590 692 590 679 m 882 501 q 847 512 871 508 q 817 529 822 515 q 857 561 857 529 q 856 566 857 564 q 854 569 854 568 l 838 569 q 797 533 829 558 q 791 555 794 544 q 776 574 788 565 q 772 565 776 571 q 768 556 768 560 q 770 547 768 556 q 774 529 772 539 q 749 525 772 529 l 556 544 q 543 504 547 519 q 674 496 608 500 q 825 433 778 486 q 833 447 833 444 q 817 481 833 456 l 817 501 q 857 483 843 483 q 882 501 871 483 m 632 582 q 608 593 624 588 q 606 588 607 592 q 603 582 604 585 q 632 582 614 581 m 583 599 q 561 603 568 599 q 551 590 558 599 q 567 582 564 582 q 583 599 572 582 m 539 606 l 519 606 q 494 585 508 599 q 503 582 497 585 q 539 606 525 585 m 776 122 q 689 147 753 147 q 658 138 674 147 q 640 125 650 132 q 636 133 640 128 q 665 179 650 156 q 681 219 681 203 q 636 275 681 254 q 547 322 563 310 q 526 297 544 310 q 485 283 508 283 q 424 328 444 283 q 406 418 406 365 q 447 533 406 510 q 539 544 465 543 q 539 578 542 565 q 504 565 518 565 q 476 585 476 565 q 496 610 476 597 q 526 622 515 622 q 627 604 556 622 q 697 586 699 586 q 721 599 708 586 q 719 607 721 601 q 643 624 700 618 q 597 633 594 629 l 626 639 q 658 650 647 629 q 642 668 653 667 q 619 667 654 667 q 585 650 600 667 q 550 633 569 633 q 510 649 526 633 q 493 688 493 665 q 515 738 493 725 q 571 747 531 747 q 590 744 576 747 q 611 742 603 742 q 640 751 628 742 q 622 763 626 763 q 592 756 607 758 q 450 1033 556 908 q 296 1146 356 1146 q 267 1131 282 1146 q 253 1099 253 1117 q 376 962 253 1075 q 499 797 499 849 q 468 768 499 768 q 371 819 443 768 q 232 915 263 897 q 85 967 144 967 q 55 953 67 967 q 43 931 43 940 q 146 856 43 893 q 335 779 307 796 q 438 642 438 724 q 438 592 438 592 q 397 575 432 575 q 200 565 264 575 q 140 546 157 558 q 113 533 124 533 q 113 590 121 549 q 92 554 92 572 q 97 533 92 547 q 104 510 103 518 q 72 507 79 510 q 47 485 65 504 q 60 476 51 483 q 104 493 72 479 l 124 493 l 124 481 q 99 449 99 457 q 101 443 99 447 q 105 438 104 439 q 108 435 106 436 q 113 433 111 435 q 144 472 133 444 l 156 472 q 182 449 164 449 q 188 456 186 449 q 193 464 190 463 q 176 476 185 469 q 168 493 168 483 q 236 514 168 506 q 335 522 293 522 q 414 513 367 522 l 414 501 q 372 473 386 501 q 357 410 357 444 q 374 344 357 372 l 374 328 l 358 328 q 338 346 340 346 q 322 333 335 346 q 310 317 310 319 q 325 310 310 315 q 340 299 340 304 q 340 294 340 296 q 338 288 339 293 q 311 283 321 288 q 329 283 322 286 q 321 263 326 271 q 329 260 324 263 q 350 275 339 264 l 361 275 q 358 254 361 265 q 393 228 378 249 q 408 189 408 207 q 338 149 408 160 q 206 131 272 140 q 135 71 135 114 q 194 26 135 50 q 260 6 244 6 q 289 8 267 6 q 272 25 281 24 l 272 40 l 289 40 q 301 21 299 29 q 321 25 313 24 q 318 49 321 32 l 335 49 q 338 29 338 32 q 354 47 354 35 q 269 76 354 76 q 225 74 244 76 q 224 81 225 76 q 221 89 222 86 q 374 121 297 106 q 469 204 469 146 q 458 247 469 226 l 458 268 q 486 264 472 263 q 515 268 510 268 q 601 249 568 268 q 628 215 628 232 q 589 161 628 185 q 532 106 542 132 q 613 83 550 99 q 675 69 671 69 q 697 86 697 69 q 693 99 697 90 q 689 110 689 107 l 704 110 q 717 86 710 100 q 732 100 722 90 q 728 122 728 124 l 742 122 q 744 101 744 114 q 767 108 765 107 q 776 122 772 115 m 533 333 q 526 360 533 338 q 519 424 519 383 q 532 525 519 457 q 501 535 499 535 q 442 497 463 535 q 422 418 422 465 q 485 300 422 300 q 533 333 533 300 m 579 686 q 568 682 571 682 q 563 693 563 699 q 567 700 563 699 q 571 703 571 701 q 579 699 571 703 l 579 686 m 511 344 q 500 331 508 339 l 500 347 q 506 347 503 347 q 511 344 510 346 z "},"™":{"ha":1372,"x_min":79,"x_max":1285,"o":"m 1285 754 q 1281 621 1285 654 q 1222 521 1268 521 q 1163 576 1182 521 q 1135 678 1149 626 q 1072 733 1115 733 q 1023 712 1056 733 q 988 690 990 690 q 860 765 954 690 q 796 624 838 732 q 736 551 768 551 q 686 625 686 551 q 692 690 686 650 q 699 735 699 731 q 664 857 699 799 q 561 925 622 925 q 442 801 442 925 q 452 700 442 769 q 463 603 463 631 q 394 521 463 521 q 319 649 347 521 q 292 817 306 733 q 222 922 279 900 q 127 942 175 932 q 79 1007 79 951 q 165 1083 79 1053 q 283 1107 232 1107 q 431 1096 314 1107 q 636 1064 581 1081 q 729 1054 669 1053 q 796 1054 789 1056 q 868 976 808 1049 q 972 915 918 915 q 1065 995 1010 915 q 1174 1075 1121 1075 q 1249 1000 1218 1075 q 1285 754 1285 911 z "},"·":{"ha":333,"x_min":67,"x_max":281,"o":"m 279 572 q 247 490 281 519 q 171 471 226 472 q 83 517 117 469 q 67 583 67 540 q 92 642 67 617 q 188 688 136 686 q 233 672 215 688 q 258 642 246 657 q 279 572 278 618 z "}," ":{"ha":347,"x_min":0,"x_max":0,"o":""}}}
